<svg width="92" height="92" viewBox="0 0 92 92" fill="none" xmlns="http://www.w3.org/2000/svg">
<g filter="url(#filter0_d)">
<circle cx="46" cy="46" r="30" fill="#2F2926"/>
</g>
<path fill-rule="evenodd" clip-rule="evenodd" d="M48.0486 38.0488V40.7723H43.9511V38.0488C43.9511 36.9173 44.8684 36 45.9999 36C47.1314 36 48.0486 36.9173 48.0486 38.0488ZM41.9511 38.0488C41.9511 35.8127 43.7638 34 45.9999 34C48.2359 34 50.0486 35.8127 50.0486 38.0488V40.7723V41.4227H51.5428C52.6103 41.4227 53.4897 42.2612 53.5405 43.3276L53.9978 52.9314C54.0521 54.0721 53.142 55.0266 52.0001 55.0266H40C38.8581 55.0266 37.948 54.0721 38.0023 52.9314L38.4596 43.3276C38.5104 42.2612 39.3898 41.4227 40.4574 41.4227H41.9511V40.7723V38.0488ZM40.4574 43.4227H51.5428L52.0001 53.0266H40L40.4574 43.4227Z" fill="white"/>
<defs>
<filter id="filter0_d" x="0" y="0" width="92" height="92" filterUnits="userSpaceOnUse" color-interpolation-filters="sRGB">
<feFlood flood-opacity="0" result="BackgroundImageFix"/>
<feColorMatrix in="SourceAlpha" type="matrix" values="0 0 0 0 0 0 0 0 0 0 0 0 0 0 0 0 0 0 127 0"/>
<feOffset/>
<feGaussianBlur stdDeviation="8"/>
<feColorMatrix type="matrix" values="0 0 0 0 0 0 0 0 0 0 0 0 0 0 0 0 0 0 0.12 0"/>
<feBlend mode="normal" in2="BackgroundImageFix" result="effect1_dropShadow"/>
<feBlend mode="normal" in="SourceGraphic" in2="effect1_dropShadow" result="shape"/>
</filter>
</defs>
</svg>
