<svg width="375" height="73" viewBox="0 0 375 73" fill="none" xmlns="http://www.w3.org/2000/svg">
<g clip-path="url(#clip0)">
<path d="M229.732 27.8734C229.732 27.8734 109.528 18.606 41.1759 54.7677C17.9819 67.0348 3.36451 81.2217 -5.81449 94.6216C-24.9618 122.553 -7.22158 160.432 26.6124 163.879C42.8381 165.533 63.1728 163.57 87.563 153.847C159.433 125.191 229.732 27.8734 229.732 27.8734Z" fill="#2F8C91"/>
<path d="M45.1366 115.831C49.9791 113.579 54.8191 111.337 59.6616 109.085C75.3568 120.931 91.0495 132.787 106.754 144.635C107.304 144.33 107.854 144.025 108.396 143.708C92.7444 131.893 77.0928 120.078 61.4412 108.263C66.015 106.14 70.6008 104.009 75.1746 101.886C90.3709 112.981 105.061 124.738 119.192 137.123C119.686 136.795 120.187 136.478 120.681 136.149C106.64 123.817 92.0585 112.116 76.9663 101.056C81.3657 99.0127 85.7651 96.9696 90.1645 94.9264C104.09 106.052 118.005 117.175 131.93 128.301C132.41 127.948 132.889 127.596 133.371 127.234C119.557 116.196 105.736 105.146 91.9223 94.1087C96.5324 91.9637 101.15 89.8306 105.76 87.6856C119.651 96.9526 133.155 106.777 146.223 117.148C146.678 116.769 147.131 116.4 147.576 116.019C134.656 105.755 121.314 96.0207 107.588 86.8339C112.336 84.6306 117.084 82.4272 121.834 80.2143C134.195 88.7068 146.179 97.7185 157.738 107.228C158.174 106.845 158.602 106.45 159.038 106.067C147.634 96.6755 135.83 87.7679 123.65 79.3699C127.515 77.5743 131.389 75.781 135.253 73.9853C146.733 81.2086 157.868 88.9388 168.624 97.1571C169.045 96.7501 169.464 96.3526 169.885 95.9455C159.314 87.8528 148.384 80.2432 137.115 73.1215C141.829 70.9303 146.543 68.7392 151.257 66.548C161.664 71.7952 171.449 78.1228 180.473 85.4268C180.875 85.0151 181.277 84.6034 181.681 84.1821C172.873 77.0418 163.345 70.8368 153.226 65.6285C154.831 64.8859 156.439 64.1337 158.044 63.3912C158.357 63.4154 158.674 63.2985 158.882 63.0029C160.047 62.4594 161.209 61.9255 162.373 61.382C171.749 65.3847 180.274 71.003 187.599 78C187.994 77.5764 188.386 77.1623 188.78 76.7387C181.666 69.9652 173.463 64.4549 164.456 60.4186C167.993 58.7782 171.521 57.1355 175.058 55.4951C182.443 59.365 189.502 63.7562 196.206 68.6521C196.594 68.2165 196.979 67.7906 197.366 67.355C190.896 62.6275 184.092 58.3686 177.003 54.59C180.286 53.0614 183.576 51.5446 186.859 50.0159C191.322 53.3357 195.777 56.6436 200.24 59.9634C200.976 60.5063 201.717 61.0708 202.453 61.6138C202.831 61.1759 203.206 60.7477 203.581 60.3194C202.482 59.5061 201.407 58.6783 200.327 57.8696C196.436 54.9719 192.542 52.0838 188.651 49.186C191.433 47.8927 194.203 46.6066 196.985 45.3133C201.467 47.5804 205.852 50.0275 210.116 52.6692C210.496 52.2217 210.867 51.772 211.235 51.3318C207.247 48.8581 203.157 46.543 198.973 44.3984C202.22 42.8915 205.457 41.3822 208.702 39.8849C211.435 41.386 214.089 43.0001 216.658 44.7463C217.031 44.2869 217.392 43.8348 217.75 43.3923C215.442 41.831 213.062 40.3539 210.624 38.9848C212.58 38.0725 214.534 37.1697 216.491 36.2574C218.108 37.1343 219.728 38.0016 221.336 38.8761C221.711 38.4072 222.062 37.9527 222.411 37.5079C221.081 36.7918 219.752 36.0757 218.433 35.3619C221.355 34.0007 224.275 32.649 227.207 31.2901C228.861 29.0952 229.732 27.8814 229.732 27.8814C229.732 27.8814 228.272 27.7642 225.587 27.6168C222.328 29.1309 219.069 30.6451 215.81 32.1592C216.653 30.5724 217.365 28.9339 217.972 27.2601C217.381 27.2401 216.781 27.2177 216.161 27.1907C215.343 29.3323 214.333 31.4178 213.108 33.4209C210.837 34.4812 208.559 35.5297 206.287 36.59C207.931 33.498 209.282 30.3051 210.34 27.0112C209.75 26.9912 209.156 26.9807 208.544 26.9656C207.401 30.4323 205.912 33.8055 204.091 37.0278C203.965 37.2416 203.953 37.4522 203.997 37.6456C199.808 39.5869 195.629 41.5306 191.44 43.4718C193.861 37.9945 196.077 32.4372 198.103 26.8141C197.498 26.811 196.883 26.8054 196.265 26.8095C194.091 32.8139 191.69 38.7432 189.065 44.5783C185.305 46.3278 181.535 48.075 177.775 49.8245C180.983 42.2488 183.997 34.5858 186.82 26.8668C186.203 26.8708 185.592 26.8868 184.963 26.8981C181.997 34.9793 178.823 42.9902 175.433 50.9187C170.823 53.0637 166.204 55.2064 161.594 57.3514C166.179 47.4534 170.375 37.3905 174.186 27.1842C173.563 27.2074 172.941 27.2307 172.309 27.2516C168.343 37.8273 163.954 48.2503 159.158 58.4942C156.119 59.9088 153.071 61.3211 150.032 62.7357C153.204 51.115 156.375 39.4944 159.547 27.8737C158.941 27.9112 158.336 27.9486 157.721 27.9838C154.47 39.8801 151.228 51.7787 147.974 63.6846C142.073 66.4242 136.173 69.1638 130.272 71.9034C136.725 57.8282 142.397 43.4233 147.263 28.7534C146.634 28.8054 146.014 28.8597 145.385 28.9117C140.371 43.9223 134.524 58.6513 127.851 73.0292C122.449 75.5431 117.05 78.0473 111.638 80.5588C116.49 64.035 121.344 47.5016 126.196 30.9778C125.569 31.0609 124.944 31.1344 124.327 31.2198C119.402 47.9904 114.478 64.7611 109.563 81.5341C107.503 82.4926 105.442 83.4511 103.384 84.3999C100.881 85.567 98.37 86.7222 95.8664 87.8893C100.803 69.688 105.742 51.4772 110.678 33.2759C110.056 33.3804 109.424 33.4827 108.799 33.5968C103.809 52.009 98.8077 70.4284 93.818 88.8405C89.9537 90.6362 86.0894 92.4318 82.2251 94.2274C85.4641 75.1402 88.7032 56.053 91.9326 36.9634C91.3224 37.1014 90.7122 37.2394 90.0997 37.3869C86.8582 56.5244 83.607 75.6596 80.3656 94.797C80.3486 94.9048 80.3559 94.998 80.3632 95.0913C74.8354 97.6562 69.3174 100.223 63.7897 102.788C67.8665 82.2148 71.9529 61.6436 76.0297 41.0701C75.4074 41.256 74.7755 41.4396 74.1532 41.6255C70.0474 62.314 65.9416 83.0025 61.8455 103.693C57.7027 105.615 53.5696 107.539 49.4269 109.461C51.155 89.1568 52.8759 68.8404 54.604 48.5359C53.9963 48.7862 53.3982 49.039 52.7977 49.3013C51.072 69.6369 49.3342 89.9797 47.6085 110.315C43.1994 112.356 38.7976 114.409 34.3885 116.45C33.8963 96.8009 34.518 77.1352 36.2413 57.5412C35.6166 57.8993 35.004 58.2502 34.3987 58.6131C32.7287 78.1182 32.1506 97.6927 32.6864 117.25C25.5388 120.575 18.3841 123.887 11.2365 127.211C10.7493 109.617 11.1167 92.0154 12.305 74.4583C11.6707 75.0175 11.0581 75.5717 10.4431 76.1355C9.33229 93.3046 9.02293 110.514 9.51985 127.703C9.5247 127.806 9.54165 127.902 9.58039 127.992C6.57563 129.395 3.5636 130.785 0.558829 132.188C-0.451306 118.169 -1.45176 104.152 -2.46431 90.143C-3.0115 90.8452 -3.53932 91.5519 -4.05503 92.2515C-3.07638 105.826 -2.09774 119.4 -1.12879 132.972C-4.10692 134.35 -7.08747 135.738 -10.0559 137.119C-9.53288 138.342 -8.94447 139.551 -8.31732 140.729C-7.49168 140.348 -6.66603 139.967 -5.84038 139.586C3.65373 147.511 13.1478 155.436 22.6323 163.359C23.7098 163.567 24.809 163.73 25.9252 163.866C15.9154 155.502 5.90309 147.147 -4.11646 138.78C-1.45309 137.55 1.20302 136.308 3.86639 135.077C15.7964 144.869 27.7385 154.654 39.6685 164.446C40.5256 164.428 41.3973 164.394 42.2713 164.35C30.0508 154.325 17.8206 144.299 5.60243 134.265C9.73308 132.35 13.854 130.433 17.9847 128.519C31.3191 139.868 44.6559 151.208 57.9903 162.558C58.7118 162.426 59.4334 162.295 60.1694 162.146C46.6825 150.668 33.1931 139.2 19.7159 127.725C23.3139 126.048 26.9191 124.383 30.5171 122.707C30.6212 122.661 30.7156 122.612 30.8197 122.566C45.6287 133.935 59.8154 146.058 73.3411 158.888C73.973 158.704 74.6074 158.511 75.2442 158.308C61.6773 145.398 47.4373 133.2 32.5872 121.751C33.0521 121.537 33.517 121.324 33.9722 121.108C34.0811 121.083 34.1853 121.037 34.2627 120.974C37.2772 119.574 40.2916 118.174 43.3158 116.776C60.0739 127.79 76.2726 139.594 91.8831 152.142C92.4738 151.877 93.0719 151.624 93.6651 151.35C78.0523 138.69 61.8656 126.879 45.1366 115.831Z" fill="#286F7F"/>
<path d="M170.082 77.7417C170.082 77.7417 233.432 134.752 289.826 150.934C308.967 156.425 324.2 157.355 335.971 156.179C360.527 153.733 369.131 131.011 351.716 114.639C343.362 106.785 330.912 98.5227 312.346 91.4999C257.665 70.8164 170.082 77.7417 170.082 77.7417Z" fill="#BAE3DD"/>
<path d="M317.635 125.246C313.791 123.974 309.953 122.71 306.109 121.439C303.07 109.826 300.033 98.2078 296.994 86.5955C296.535 86.4697 296.075 86.35 295.614 86.2304C298.644 97.814 301.674 109.398 304.706 120.975C301.075 119.778 297.438 118.572 293.807 117.375C290.683 106.275 288.161 95.1464 286.275 84.0171C285.833 83.9225 285.391 83.8278 284.957 83.7355C286.827 94.8012 289.306 105.872 292.388 116.907C288.9 115.757 285.405 114.599 281.916 113.449C279.522 102.908 277.13 92.3601 274.736 81.8185C274.289 81.742 273.849 81.6677 273.4 81.5972C275.774 92.0608 278.148 102.525 280.521 112.988C276.86 111.776 273.205 110.571 269.544 109.359C266.256 99.5559 263.461 89.7113 261.169 79.8416C260.732 79.7878 260.287 79.7316 259.85 79.6778C262.105 89.4385 264.854 99.1778 268.087 108.873C264.321 107.63 260.548 106.386 256.784 105.137C253.976 96.3177 251.64 87.4642 249.786 78.5992C249.354 78.5597 248.913 78.5179 248.481 78.4785C250.301 87.2225 252.594 95.9586 255.343 104.656C252.276 103.641 249.207 102.632 246.14 101.616C243.204 93.6847 240.724 85.714 238.688 77.7141C238.252 77.6867 237.816 77.6593 237.381 77.6258C239.371 85.488 241.802 93.3331 244.666 101.126C240.925 99.8905 237.183 98.6548 233.442 97.4191C230.146 90.7403 227.73 83.9156 226.218 77.0432C225.788 77.0241 225.357 77.011 224.927 76.992C226.39 83.7063 228.725 90.3637 231.88 96.9034C230.604 96.483 229.335 96.065 228.061 95.6385C227.895 95.4926 227.656 95.3908 227.394 95.4203C226.475 95.116 225.548 94.8093 224.628 94.505C221.301 88.7678 219.252 82.7827 218.556 76.7879C218.124 76.7748 217.699 76.7701 217.267 76.7571C217.955 82.5729 219.876 88.3768 222.98 93.9579C220.174 93.0311 217.376 92.1066 214.57 91.1799C212.302 86.3836 210.479 81.5257 209.095 76.6303C208.66 76.6293 208.234 76.6246 207.8 76.6176C209.13 81.3466 210.874 86.0311 213.024 90.6688C210.417 89.8058 207.81 88.9429 205.208 88.0882C204.322 84.811 203.429 81.5254 202.542 78.2482C202.391 77.7066 202.251 77.1613 202.1 76.6197C201.673 76.6211 201.245 76.6224 200.826 76.626C201.045 77.43 201.247 78.2355 201.461 79.0311C202.236 81.8962 203.014 84.7552 203.789 87.6202C201.585 86.8932 199.382 86.1662 197.178 85.4392C195.753 82.5576 194.494 79.6513 193.378 76.7277C192.941 76.7327 192.51 76.7461 192.089 76.7558C193.127 79.5 194.296 82.2163 195.608 84.9212C193.033 84.0675 190.464 83.2221 187.888 82.3684C187.079 80.5687 186.38 78.7546 185.779 76.9296C185.348 76.943 184.917 76.9564 184.502 76.9744C185.035 78.6162 185.66 80.2449 186.359 81.862C184.805 81.3486 183.252 80.8353 181.698 80.3219C181.215 79.265 180.733 78.2019 180.241 77.1426C179.8 77.1597 179.376 77.1815 178.961 77.1995C179.361 78.0687 179.752 78.9417 180.152 79.8109C177.83 79.0432 175.516 78.2778 173.193 77.5101C171.173 77.6488 170.082 77.7408 170.082 77.7408C170.082 77.7408 170.85 78.4339 172.295 79.6829C174.878 80.5389 177.463 81.389 180.055 82.2473C178.795 82.4938 177.59 82.8215 176.428 83.2075C176.747 83.4767 177.074 83.7542 177.424 84.0386C178.937 83.5572 180.537 83.1925 182.212 82.9544C184.019 83.5538 185.819 84.1448 187.626 84.7442C185.18 85.2256 182.839 85.8813 180.631 86.7001C180.961 86.9655 181.289 87.237 181.623 87.5168C183.97 86.6663 186.471 86.004 189.09 85.553C189.265 85.5246 189.384 85.4475 189.455 85.3565C192.777 86.4516 196.097 87.5528 199.418 88.6479C195.357 89.7189 191.373 90.9105 187.457 92.2202C187.795 92.488 188.139 92.764 188.492 93.0364C192.676 91.6467 196.941 90.3918 201.305 89.2704C204.294 90.2564 207.283 91.2424 210.261 92.2321C204.722 93.7817 199.254 95.4436 193.859 97.2115C194.212 97.4839 194.56 97.7479 194.922 98.0226C200.569 96.17 206.302 94.4402 212.118 92.8393C215.779 94.0519 219.442 95.2585 223.095 96.4688C215.638 98.311 208.317 100.396 201.137 102.705C201.501 102.973 201.864 103.242 202.228 103.511C209.674 101.128 217.272 98.9917 225.029 97.1112C227.445 97.9126 229.856 98.7058 232.265 99.5049C224.755 102.65 217.253 105.797 209.743 108.941C210.103 109.195 210.462 109.45 210.829 109.706C218.519 106.483 226.208 103.265 233.89 100.039C238.567 101.584 243.252 103.131 247.929 104.675C237.363 107.319 227.077 110.45 217.106 114.039C217.481 114.298 217.867 114.553 218.25 114.814C228.467 111.159 239.01 107.984 249.856 105.309C254.143 106.729 258.432 108.142 262.712 109.559C251.842 113.878 240.971 118.198 230.099 122.523C230.496 122.769 230.884 123.012 231.281 123.257C242.311 118.872 253.342 114.481 264.372 110.096C266.003 110.639 267.637 111.175 269.269 111.718C271.258 112.376 273.248 113.035 275.231 113.685C263.483 118.63 251.746 123.571 239.999 128.516C240.407 128.752 240.807 128.985 241.216 129.221C253.093 124.222 264.97 119.222 276.856 114.219C279.923 115.234 282.992 116.244 286.059 117.259C274.844 123.301 263.62 129.347 252.405 135.389C252.819 135.607 253.232 135.824 253.648 136.036C264.894 129.976 276.14 123.917 287.387 117.858C287.449 117.823 287.496 117.784 287.527 117.741C291.91 119.188 296.294 120.635 300.676 122.088C288.248 128.338 275.828 134.59 263.4 140.839C263.844 141.046 264.287 141.252 264.732 141.453C277.223 135.168 289.723 128.881 302.213 122.597C305.495 123.68 308.777 124.764 312.067 125.85C301.097 133.044 290.138 140.235 279.169 147.429C279.631 147.602 280.103 147.771 280.567 147.937C291.548 140.733 302.529 133.529 313.508 126.331C317.004 127.483 320.499 128.641 323.996 129.793C314.612 137.713 304.582 145.145 293.966 152.062C294.491 152.2 295.018 152.332 295.537 152.462C306.079 145.557 316.026 138.14 325.351 130.242C331.027 132.114 336.693 133.99 342.37 135.862C333.989 142.97 325.126 149.71 315.821 156.067C316.455 156.132 317.075 156.186 317.695 156.24C326.763 150.005 335.403 143.397 343.581 136.441C343.629 136.396 343.66 136.352 343.692 136.302C346.079 137.089 348.464 137.881 350.85 138.667C344.528 144.612 338.199 150.548 331.877 156.493C332.532 156.459 333.171 156.42 333.814 156.37C339.939 150.617 346.064 144.865 352.191 139.106C354.553 139.885 356.916 140.664 359.276 141.45C359.588 140.733 359.852 140.003 360.067 139.259C359.409 139.043 358.758 138.829 358.102 138.607C356.639 131.284 355.173 123.966 353.71 116.642C353.199 116.082 352.66 115.527 352.1 114.985C353.644 122.706 355.187 130.432 356.731 138.153C354.623 137.454 352.506 136.758 350.398 136.059C348.47 126.923 346.541 117.787 344.622 108.648C344.125 108.275 343.619 107.9 343.103 107.528C345.078 116.887 347.052 126.246 349.019 135.603C345.745 134.521 342.472 133.44 339.198 132.359C337.248 121.991 335.29 111.621 333.341 101.254C332.872 100.987 332.395 100.719 331.91 100.448C333.885 110.934 335.86 121.421 337.835 131.907C334.981 130.966 332.12 130.017 329.266 129.077C329.186 129.054 329.108 129.024 329.029 128.995C326.259 117.965 324.203 106.911 322.872 95.8766C322.421 95.6678 321.968 95.4651 321.516 95.2564C322.832 106.339 324.873 117.448 327.636 128.528C327.271 128.41 326.899 128.283 326.534 128.165C326.459 128.123 326.379 128.1 326.303 128.092C323.909 127.303 321.516 126.509 319.122 125.72C315.072 113.961 311.721 102.14 309.085 90.2902C308.619 90.1297 308.153 89.9692 307.687 89.8087C310.278 101.665 313.611 113.487 317.635 125.246Z" fill="#97C9CE"/>
<path d="M224.002 99.2117C223.983 99.0708 223.95 98.9305 223.924 98.7969C223.916 98.7759 223.923 98.7545 223.915 98.7335C223.889 98.6 223.863 98.4664 223.831 98.3402C223.83 98.3261 223.823 98.3051 223.822 98.291C223.789 98.1506 223.763 98.017 223.723 97.884C223.722 97.8557 223.707 97.8279 223.706 97.7996C223.666 97.6666 223.641 97.533 223.601 97.3999C223.593 97.379 223.592 97.3507 223.584 97.3297C223.544 97.1967 223.504 97.0636 223.464 96.9305L223.457 96.9237C223.417 96.7906 223.37 96.6507 223.323 96.525C223.316 96.504 223.308 96.483 223.3 96.4621C223.253 96.3363 223.207 96.2106 223.16 96.0848C223.152 96.0638 223.144 96.0429 223.129 96.0151C223.082 95.8893 223.028 95.7567 222.982 95.631C222.974 95.6241 222.981 95.6168 222.974 95.61C222.927 95.4842 222.874 95.3658 222.82 95.2473C222.812 95.2264 222.805 95.2195 222.797 95.1986C222.744 95.0801 222.69 94.9617 222.629 94.8364C222.621 94.8154 222.614 94.7944 222.606 94.7735C222.552 94.655 222.491 94.5297 222.431 94.4186C222.424 94.4118 222.423 94.3976 222.409 94.384C222.355 94.2655 222.287 94.1475 222.227 94.0364C222.22 94.0296 222.227 94.0223 222.219 94.0154C222.159 93.9043 222.091 93.7863 222.031 93.6752C222.023 93.6542 222.008 93.6405 222.008 93.6264C221.948 93.5153 221.88 93.4114 221.82 93.3003C221.813 93.2934 221.805 93.2725 221.798 93.2656C221.663 93.0438 221.521 92.8293 221.379 92.6148C221.372 92.608 221.364 92.587 221.357 92.5802C221.29 92.4763 221.216 92.3798 221.142 92.2833C221.134 92.2764 221.12 92.2628 221.119 92.2487C220.971 92.0414 220.816 91.8557 220.661 91.6699C220.654 91.6631 220.654 91.6631 220.646 91.6563C220.565 91.567 220.499 91.4773 220.418 91.3881C220.41 91.3813 220.403 91.3744 220.396 91.3676C220.315 91.2784 220.241 91.196 220.161 91.1067C219.999 90.9424 219.838 90.7781 219.677 90.6279C219.67 90.6211 219.663 90.6143 219.663 90.6143C219.582 90.5392 219.495 90.4714 219.422 90.4031L219.415 90.3963C219.247 90.2534 219.087 90.1315 218.913 90.01L218.906 90.0032C218.826 89.9422 218.74 89.8886 218.66 89.8418L218.653 89.8349C218.4 89.6808 218.155 89.5476 217.897 89.4432L217.889 89.4364C217.638 89.3388 217.395 89.2621 217.153 89.2138L217.146 89.2069C217.067 89.1884 216.989 89.1839 216.904 89.1727C216.741 89.157 216.592 89.155 216.43 89.1676C216.352 89.1773 216.282 89.1797 216.205 89.2035C216.205 89.2035 216.205 89.2035 216.198 89.2108C215.185 89.4009 214.344 90.2573 213.857 91.9506C211.616 99.6963 217.326 108.056 219.619 110.992C218.117 110.491 216.615 110.019 215.099 109.561C214.063 109.249 213.027 108.952 211.991 108.655L210.541 108.244C206.698 107.172 202.842 106.143 199.019 105.02C199.052 104.97 199.086 104.919 199.127 104.875C199.229 104.737 199.323 104.607 199.425 104.469C199.486 104.389 199.532 104.309 199.593 104.23C199.681 104.106 199.755 103.984 199.843 103.86C199.896 103.774 199.95 103.687 200.004 103.6C200.077 103.477 200.158 103.361 200.225 103.246C200.279 103.159 200.332 103.072 200.379 102.979C200.445 102.863 200.519 102.741 200.579 102.618C200.632 102.532 200.672 102.445 200.718 102.352C200.778 102.23 200.845 102.114 200.904 101.992C200.944 101.906 200.99 101.812 201.037 101.733C201.096 101.61 201.156 101.488 201.208 101.359C201.247 101.273 201.287 101.186 201.32 101.107C201.372 100.978 201.424 100.849 201.483 100.713C201.516 100.634 201.549 100.555 201.581 100.476C201.64 100.325 201.692 100.182 201.75 100.031C201.769 99.9672 201.795 99.9097 201.822 99.8522C201.893 99.6446 201.963 99.437 202.027 99.2226C202.026 99.2085 202.04 99.1938 202.04 99.1797C202.097 98.9867 202.154 98.7938 202.211 98.6008C202.23 98.5365 202.242 98.4653 202.261 98.401C202.298 98.2582 202.336 98.1154 202.367 97.98C202.385 97.9015 202.404 97.823 202.422 97.7446C202.446 97.6164 202.484 97.4878 202.508 97.3596C202.527 97.2812 202.538 97.1959 202.549 97.1106C202.573 96.9824 202.59 96.8616 202.614 96.7334C202.626 96.6481 202.637 96.5628 202.655 96.4844C202.673 96.3635 202.69 96.2427 202.707 96.1218C202.718 96.0365 202.729 95.9512 202.741 95.8659C202.758 95.7451 202.768 95.6174 202.778 95.5038C202.789 95.4186 202.793 95.3406 202.805 95.2553C202.815 95.1276 202.818 95.0072 202.827 94.8795C202.832 94.8016 202.836 94.7236 202.841 94.6456C202.85 94.5179 202.853 94.3834 202.855 94.2489C202.853 94.1782 202.858 94.1144 202.862 94.0364C202.864 93.8878 202.859 93.7323 202.861 93.5836C202.86 93.5412 202.865 93.4915 202.856 93.4423C202.85 93.2444 202.843 93.0466 202.836 92.8487C202.835 92.8204 202.827 92.7995 202.834 92.778C202.828 92.6084 202.808 92.4393 202.802 92.2697C202.793 92.2063 202.784 92.1429 202.789 92.0791C202.777 91.9451 202.766 91.8252 202.748 91.6984C202.738 91.6209 202.729 91.5576 202.719 91.4801C202.708 91.3602 202.69 91.2476 202.672 91.135C202.662 91.0575 202.652 90.98 202.636 90.9098C202.618 90.7972 202.6 90.6846 202.582 90.5862C202.573 90.5087 202.549 90.4317 202.539 90.3542C202.514 90.2489 202.504 90.1431 202.479 90.0378C202.469 89.9603 202.445 89.8833 202.436 89.8058C202.411 89.7005 202.386 89.5953 202.369 89.4968C202.352 89.4266 202.335 89.3423 202.318 89.2721C202.294 89.1668 202.262 89.0688 202.237 88.9636C202.221 88.8934 202.197 88.8163 202.18 88.7462C202.155 88.6409 202.117 88.5361 202.092 88.4308C202.068 88.3679 202.052 88.2977 202.028 88.2348C201.989 88.1159 201.957 88.0038 201.918 87.8848C201.901 87.8288 201.886 87.7869 201.87 87.7308C201.815 87.5699 201.76 87.4091 201.691 87.2487C201.668 87.2 201.652 87.1439 201.629 87.0952C201.59 86.9904 201.544 86.8787 201.505 86.7739C201.474 86.7042 201.451 86.6413 201.42 86.5716C201.382 86.4809 201.35 86.3971 201.305 86.3137C201.275 86.244 201.244 86.1743 201.213 86.1046C201.175 86.0281 201.137 85.9515 201.106 85.8677C201.075 85.798 201.031 85.7288 201 85.659C200.962 85.5825 200.931 85.5128 200.887 85.4436C200.856 85.3739 200.811 85.3046 200.78 85.2349C200.743 85.1725 200.705 85.096 200.667 85.0336C200.623 84.9644 200.592 84.8946 200.547 84.8254C200.51 84.763 200.472 84.7006 200.427 84.6314C200.383 84.5622 200.345 84.4998 200.3 84.4305C200.263 84.3681 200.218 84.313 200.181 84.2506C200.136 84.1814 200.099 84.119 200.047 84.0571C200.003 84.002 199.972 83.9464 199.935 83.8981C199.891 83.8289 199.839 83.767 199.802 83.7046C199.764 83.6563 199.735 83.6149 199.698 83.5666C199.513 83.3253 199.321 83.0912 199.123 82.8786C199.086 82.8445 199.064 82.8099 199.027 82.7757C198.975 82.7138 198.917 82.6592 198.859 82.6046C198.822 82.5705 198.785 82.5363 198.756 82.4949C198.697 82.4403 198.646 82.3925 198.588 82.3379C198.551 82.3037 198.515 82.2696 198.478 82.2355C198.427 82.1877 198.368 82.1331 198.31 82.0926C198.274 82.0584 198.245 82.0311 198.201 82.0043C198.143 81.9638 198.092 81.916 198.034 81.8756C198.005 81.8483 197.962 81.8214 197.926 81.8014C197.868 81.7609 197.81 81.7205 197.752 81.68C197.716 81.66 197.686 81.6327 197.65 81.6127C197.592 81.5722 197.528 81.539 197.47 81.4985C197.434 81.4785 197.405 81.4654 197.369 81.4454C197.304 81.4122 197.246 81.3717 197.181 81.3385C197.152 81.3254 197.131 81.319 197.102 81.3058C197.037 81.2727 196.973 81.2395 196.901 81.2136L196.894 81.2068C196.642 81.0951 196.392 81.0257 196.143 80.9847C196.129 80.9852 196.108 80.9788 196.086 80.9725C196.015 80.9607 195.951 80.9558 195.887 80.9509C195.859 80.9519 195.838 80.9455 195.802 80.9397C195.738 80.9348 195.682 80.9367 195.618 80.9318C195.59 80.9327 195.561 80.9337 195.526 80.9278C195.469 80.9298 195.413 80.9317 195.349 80.9409C195.321 80.9419 195.286 80.9501 195.258 80.9511C195.201 80.953 195.145 80.9691 195.082 80.9783C195.047 80.9866 195.018 80.9875 194.991 81.0026C194.935 81.0187 194.878 81.0347 194.822 81.0508C194.787 81.0591 194.76 81.0741 194.739 81.0819C194.683 81.098 194.627 81.1282 194.571 81.1442C194.543 81.1593 194.515 81.1744 194.494 81.1822C194.439 81.2124 194.376 81.2358 194.32 81.2659C194.299 81.2737 194.279 81.2957 194.258 81.3034C193.689 81.6482 193.164 82.225 192.741 83.0884C189.237 90.1058 195.729 101.276 197.881 104.656C195.258 103.86 192.646 103.008 190.067 102.049L189.966 102.01C189.888 101.977 189.816 101.951 189.73 101.926C189.73 101.926 189.73 101.926 189.723 101.919L188.246 101.346C185.025 100.062 181.911 98.576 178.904 96.8882C179.089 96.514 179.334 96.0175 179.603 95.4069C179.637 95.3421 179.656 95.2778 179.689 95.213C179.8 94.9474 179.932 94.6599 180.049 94.3588C180.082 94.2799 180.107 94.2082 180.14 94.1293C180.205 93.9573 180.277 93.778 180.349 93.5987C180.401 93.4695 180.453 93.3404 180.498 93.2045C180.537 93.1041 180.576 93.0037 180.615 92.8892C180.744 92.5452 180.866 92.1802 180.988 91.8011C181.052 91.6149 181.109 91.422 181.167 91.229C181.912 88.8193 182.516 85.9617 182.481 83.0691C182.476 82.9278 182.479 82.7933 182.474 82.6519C182.473 82.6095 182.471 82.5671 182.47 82.5247C182.459 82.419 182.463 82.3127 182.452 82.2069C182.45 82.1645 182.449 82.1363 182.448 82.0939C182.436 81.9598 182.432 81.8185 182.42 81.6845C182.419 81.6562 182.419 81.6421 182.418 81.6138C182.414 81.5007 182.396 81.3881 182.385 81.2824C182.384 81.24 182.375 81.2049 182.374 81.1625C182.363 81.0567 182.353 80.9509 182.335 80.8525C182.334 80.8242 182.333 80.7959 182.325 80.775C182.307 80.6483 182.288 80.5215 182.27 80.3948C182.269 80.3665 182.261 80.3315 182.253 80.3105C182.236 80.212 182.218 80.1136 182.201 80.0151C182.192 79.98 182.184 79.9449 182.176 79.9098C182.158 79.7972 182.14 79.6847 182.115 79.5794C182.114 79.5652 182.107 79.5584 182.114 79.5511C182.089 79.4317 182.063 79.3123 182.038 79.1928C182.03 79.1577 182.022 79.1368 182.021 79.1085C181.997 79.0174 181.973 78.9262 181.955 78.8419C181.955 78.8136 181.939 78.7858 181.938 78.7576C181.906 78.6455 181.874 78.5333 181.842 78.4212C181.842 78.4212 181.835 78.4144 181.842 78.4071C181.817 78.3018 181.778 78.197 181.746 78.099C181.739 78.0781 181.73 78.043 181.722 78.022C181.691 77.9382 181.667 77.847 181.636 77.7632C181.628 77.7422 181.628 77.7281 181.62 77.7071C181.581 77.6023 181.549 77.5043 181.503 77.4069C181.503 77.3927 181.496 77.3859 181.488 77.3791C181.457 77.2952 181.419 77.2045 181.381 77.128C181.373 77.1071 181.365 77.0861 181.357 77.0651C181.319 76.9745 181.28 76.8838 181.235 76.8004L181.228 76.7936C181.189 76.7029 181.137 76.6127 181.092 76.5294C181.084 76.5226 181.084 76.5084 181.069 76.4948C181.031 76.4182 180.986 76.349 180.948 76.2725C180.941 76.2656 180.933 76.2447 180.926 76.2378C180.829 76.0784 180.739 75.9258 180.635 75.7879C180.627 75.781 180.62 75.7742 180.62 75.7601C180.568 75.6981 180.531 75.6357 180.479 75.5738C180.472 75.567 180.472 75.567 180.464 75.5602C180.354 75.4295 180.244 75.313 180.134 75.2106C180.127 75.2037 180.119 75.1969 180.112 75.1901C179.995 75.0808 179.886 74.9926 179.763 74.9048C179.705 74.8643 179.64 74.8311 179.589 74.7975C179.582 74.7907 179.582 74.7907 179.575 74.7838C179.459 74.717 179.33 74.6648 179.202 74.6267L179.194 74.6199C179.13 74.6008 179.073 74.5886 179.009 74.5696C179.009 74.5696 179.001 74.5628 178.994 74.5701C178.866 74.5461 178.739 74.5363 178.604 74.5338L178.59 74.5343C177.523 74.5776 176.362 75.6005 175.253 77.9306C172.632 83.4745 176.259 92.7613 177.821 96.2599C175.129 94.6887 172.53 92.9728 170.039 91.0835L168.594 89.9653C168.121 89.5922 167.655 89.2118 167.189 88.8314C165.333 87.2884 163.558 85.6578 161.859 83.9468C161.926 83.8454 161.993 83.7299 162.073 83.5998C162.121 83.5346 162.161 83.4625 162.201 83.3903C162.295 83.2456 162.388 83.0868 162.496 82.9134C162.818 82.393 163.192 81.7577 163.64 80.9995C163.78 80.7472 163.941 80.487 164.095 80.2058C164.175 80.0616 164.255 79.9174 164.342 79.78C165.17 78.3227 166.135 76.5282 167.216 74.4184C167.269 74.3176 167.323 74.2167 167.362 74.1163C167.382 74.0803 167.395 74.0515 167.415 74.0155C167.448 73.9507 167.474 73.879 167.514 73.8069C167.534 73.7709 167.547 73.728 167.567 73.6919C167.6 73.6271 167.619 73.5628 167.652 73.498C167.665 73.4551 167.691 73.4118 167.704 73.3689C167.73 73.3114 167.756 73.2398 167.783 73.1823C167.795 73.1394 167.822 73.096 167.835 73.0531C167.861 72.9956 167.88 72.9313 167.906 72.8597C167.919 72.8168 167.938 72.7666 167.958 72.7306C167.977 72.6662 168.004 72.6087 168.03 72.5371C168.042 72.4942 168.055 72.4513 168.075 72.4153C168.101 72.3437 168.12 72.2793 168.139 72.215C168.152 72.1721 168.165 72.1434 168.178 72.1005C168.203 72.0147 168.228 71.929 168.254 71.8432C168.26 71.8218 168.266 71.8003 168.273 71.7789C168.304 71.6717 168.336 71.5645 168.368 71.4573C168.381 71.4285 168.387 71.3929 168.386 71.3647C168.405 71.2862 168.423 71.2078 168.449 71.1361C168.462 71.0932 168.468 71.0577 168.48 71.0148C168.499 70.9505 168.511 70.8793 168.53 70.815C168.543 70.7721 168.548 70.7224 168.561 70.6795C168.58 70.6152 168.585 70.5513 168.597 70.4943C168.61 70.4514 168.615 70.4017 168.62 70.352C168.633 70.295 168.644 70.2239 168.657 70.1668C168.662 70.1171 168.675 70.0743 168.68 70.0245C168.692 69.9675 168.697 69.9037 168.716 69.8394C168.722 69.7897 168.734 69.7468 168.74 69.6971C168.745 69.6332 168.757 69.5762 168.769 69.5051C168.774 69.4553 168.78 69.4198 168.785 69.3701C168.797 69.2989 168.802 69.2351 168.814 69.1639C168.819 69.1283 168.818 69.0859 168.824 69.0504C168.835 68.9509 168.845 68.8374 168.856 68.738C168.862 68.7024 168.861 68.6741 168.866 68.6386C168.878 68.5674 168.876 68.4967 168.888 68.4256C168.893 68.3759 168.891 68.3335 168.897 68.2838C168.902 68.2199 168.9 68.1634 168.912 68.1064C168.917 68.0567 168.916 68.0143 168.914 67.9577C168.912 67.9012 168.918 67.8515 168.916 67.7949C168.921 67.7452 168.912 67.696 168.918 67.6463C168.916 67.5898 168.921 67.5401 168.919 67.4835C168.925 67.4338 168.916 67.3846 168.921 67.3349C168.919 67.2783 168.918 67.2359 168.916 67.1794C168.914 67.1229 168.913 67.0805 168.911 67.0239C168.916 66.9742 168.907 66.925 168.905 66.8684C168.903 66.8119 168.902 66.7695 168.9 66.713C168.899 66.6706 168.897 66.614 168.895 66.5716C168.893 66.5151 168.885 66.4659 168.89 66.4162C168.889 66.3738 168.88 66.3245 168.878 66.2821C168.868 66.1764 168.864 66.0633 168.846 65.9507C168.838 65.9156 168.843 65.88 168.835 65.8449C168.833 65.7884 168.817 65.7323 168.815 65.6758C168.814 65.6334 168.806 65.5983 168.804 65.5559C168.795 65.5067 168.786 65.4433 168.777 65.3941C168.769 65.359 168.768 65.3166 168.759 65.2815C168.751 65.2323 168.741 65.1689 168.733 65.1197C168.724 65.0846 168.723 65.0422 168.715 65.0071C168.706 64.9579 168.69 64.9018 168.688 64.8453C168.68 64.8102 168.671 64.7751 168.663 64.74C168.647 64.6839 168.638 64.6347 168.622 64.5786C168.614 64.5435 168.606 64.5085 168.598 64.4734C168.581 64.4173 168.573 64.3681 168.557 64.312C168.556 64.2838 168.541 64.256 168.54 64.2277C168.524 64.1716 168.508 64.1156 168.492 64.0595C168.491 64.0454 168.483 64.0244 168.476 64.0176C168.412 63.8075 168.334 63.5979 168.264 63.3951C168.263 63.381 168.256 63.3742 168.255 63.36C168.232 63.2972 168.209 63.2484 168.179 63.1928C168.171 63.1719 168.163 63.1509 168.156 63.1299C168.133 63.0812 168.103 63.0256 168.087 62.9696C168.079 62.9486 168.071 62.9276 168.056 62.8999C168.033 62.8511 168.01 62.8024 167.98 62.7468C167.972 62.7258 167.964 62.7049 167.942 62.6844C167.92 62.6356 167.897 62.5869 167.86 62.5386C167.852 62.5177 167.837 62.504 167.829 62.483C167.807 62.4343 167.77 62.386 167.747 62.3373C167.732 62.3236 167.732 62.3095 167.717 62.2958C167.687 62.2403 167.65 62.192 167.62 62.1505C167.613 62.1437 167.613 62.1437 167.605 62.1369C167.449 61.9087 167.286 61.702 167.103 61.5172C167.096 61.5104 167.089 61.5035 167.089 61.5035C167.045 61.4626 167.008 61.4284 166.964 61.3875C166.957 61.3807 166.943 61.367 166.935 61.3602C166.899 61.326 166.855 61.2851 166.818 61.2509C166.804 61.2373 166.796 61.2305 166.782 61.2168C166.745 61.1827 166.702 61.1559 166.658 61.1149C166.643 61.1012 166.636 61.0944 166.615 61.0881C166.571 61.0612 166.535 61.0271 166.484 60.9934C166.477 60.9866 166.462 60.973 166.448 60.9734C166.405 60.9466 166.354 60.913 166.311 60.8861C166.303 60.8793 166.303 60.8793 166.296 60.8725C166.072 60.7457 165.842 60.6403 165.599 60.5636C165.542 60.5514 165.492 60.5319 165.435 60.5197C165.421 60.5202 165.414 60.5133 165.399 60.5138C165.342 60.5016 165.293 60.4962 165.243 60.4767C165.228 60.4772 165.207 60.4708 165.193 60.4713C165.143 60.4659 165.086 60.4537 165.036 60.4483C165.022 60.4488 165.001 60.4425 164.987 60.4429C164.937 60.4376 164.873 60.4327 164.823 60.4273C164.809 60.4277 164.788 60.4214 164.774 60.4219C164.717 60.4238 164.667 60.4184 164.604 60.4135C164.59 60.414 164.575 60.4145 164.561 60.4149C163.953 60.4215 163.286 60.5786 162.561 60.9003C155.787 63.9323 159.459 78.0781 160.939 82.9238C158.233 80.1079 155.732 77.0869 153.479 73.8876C153.479 73.8735 153.479 73.8735 153.479 73.8593L152.638 72.6639C151.35 70.762 150.144 68.8007 149.028 66.7868C149.035 66.7654 149.041 66.7439 149.048 66.7225C149.092 66.5724 149.137 66.4365 149.174 66.2937C149.181 66.2722 149.18 66.2581 149.187 66.2367C149.224 66.0939 149.262 65.9511 149.292 65.8015C149.292 65.7874 149.298 65.7659 149.305 65.7586C149.335 65.609 149.365 65.4594 149.396 65.3098C149.395 65.2815 149.408 65.2528 149.407 65.2245C149.43 65.0822 149.461 64.9326 149.477 64.7835C149.476 64.7552 149.482 64.7338 149.481 64.7055C149.504 64.5491 149.52 64.3999 149.536 64.2367L149.536 64.2225C149.552 64.0734 149.561 63.9175 149.57 63.7615C149.569 63.7332 149.575 63.7118 149.574 63.6835C149.583 63.5276 149.585 63.3789 149.587 63.2303C149.586 63.202 149.585 63.1737 149.591 63.1382C149.593 62.9895 149.602 62.8336 149.596 62.6781C149.603 62.6566 149.595 62.6357 149.594 62.6074C149.596 62.4588 149.591 62.3033 149.579 62.1551C149.578 62.141 149.578 62.1269 149.577 62.1127C149.572 61.9573 149.559 61.795 149.547 61.6468C149.546 61.6185 149.545 61.5903 149.544 61.562C149.532 61.4138 149.513 61.2588 149.501 61.1107C149.5 61.0824 149.499 61.0541 149.498 61.0259C149.478 60.8709 149.459 60.7159 149.44 60.5609C149.439 60.5467 149.432 60.5399 149.431 60.5258C149.412 60.3708 149.386 60.2231 149.366 60.0681C149.358 60.0471 149.357 60.0189 149.357 60.0047C149.331 59.8571 149.304 59.6952 149.278 59.5475C149.277 59.5193 149.269 59.4842 149.261 59.4632C149.227 59.3087 149.201 59.161 149.167 59.0065C149.16 58.9856 149.159 58.9573 149.151 58.9363C149.117 58.7818 149.077 58.6346 149.043 58.4801C149.036 58.4733 149.043 58.466 149.036 58.4591C148.995 58.2978 148.954 58.1506 148.913 57.9892C148.906 57.9683 148.897 57.9332 148.89 57.9122C148.849 57.765 148.802 57.611 148.761 57.4638C148.746 57.436 148.745 57.4077 148.73 57.3799C148.682 57.2259 148.635 57.0719 148.58 56.9251C148.58 56.911 148.565 56.8974 148.565 56.8832C148.51 56.7365 148.47 56.5893 148.415 56.4426C148.407 56.4216 148.4 56.4006 148.399 56.3865C148.345 56.2398 148.29 56.0931 148.236 55.9463C148.221 55.9185 148.22 55.8903 148.204 55.8625C148.15 55.7158 148.089 55.5763 148.034 55.4296C148.026 55.4087 148.011 55.3809 148.003 55.3599C147.942 55.2064 147.88 55.0669 147.818 54.9134C147.75 54.7671 147.688 54.6136 147.619 54.4673C147.612 54.4464 147.596 54.4186 147.589 54.3976C147.527 54.2582 147.452 54.1193 147.391 53.9799C147.375 53.9521 147.368 53.9311 147.353 53.9033C147.277 53.7644 147.216 53.625 147.14 53.486C147.132 53.4651 147.125 53.4582 147.117 53.4373C147.049 53.3052 146.974 53.1662 146.906 53.0341C146.898 53.0273 146.89 53.0063 146.883 52.9995C146.808 52.8606 146.74 52.7285 146.657 52.5968C146.642 52.569 146.634 52.5481 146.619 52.5203C146.544 52.3955 146.469 52.2565 146.394 52.1317C146.386 52.1108 146.364 52.0903 146.356 52.0693C146.274 51.9377 146.192 51.8061 146.109 51.6744L146.102 51.6676C146.02 51.536 145.938 51.4044 145.856 51.2869C145.848 51.2659 145.833 51.2522 145.825 51.2313C145.744 51.1138 145.669 50.989 145.58 50.8647C145.564 50.8369 145.55 50.8232 145.535 50.7954C145.453 50.6779 145.364 50.5536 145.282 50.4361C145.267 50.4225 145.267 50.4083 145.252 50.3947C145.17 50.2772 145.082 50.167 145 50.0495C144.993 50.0427 144.985 50.0358 144.985 50.0217C144.896 49.9115 144.814 49.794 144.726 49.6838C144.711 49.6702 144.696 49.6424 144.681 49.6287C144.593 49.5185 144.511 49.4152 144.423 49.305C144.408 49.2913 144.4 49.2704 144.379 49.2499C144.29 49.1397 144.194 49.0368 144.106 48.9266L144.098 48.9198C144.003 48.8169 143.922 48.7135 143.826 48.6107C143.812 48.597 143.804 48.5902 143.79 48.5765C143.701 48.4805 143.613 48.3844 143.525 48.2884C143.511 48.2747 143.496 48.2611 143.474 48.2406C143.386 48.1445 143.291 48.0558 143.21 47.9665C143.195 47.9529 143.188 47.9461 143.173 47.9324C143.078 47.8437 142.99 47.7476 142.896 47.673L142.888 47.6662C142.793 47.5774 142.706 47.4955 142.611 47.4209C142.597 47.4072 142.582 47.3936 142.575 47.3867C142.487 47.3048 142.393 47.2302 142.305 47.1624C142.291 47.1488 142.283 47.1419 142.269 47.1283C142.174 47.0537 142.08 46.979 141.993 46.9113C141.985 46.9044 141.985 46.9044 141.978 46.8976C141.891 46.8298 141.796 46.7552 141.702 46.6947C141.695 46.6879 141.688 46.6811 141.68 46.6742C141.593 46.6064 141.499 46.546 141.412 46.4923C141.398 46.4787 141.384 46.4791 141.369 46.4655C141.282 46.4118 141.188 46.3513 141.101 46.2977C141.094 46.2909 141.08 46.2914 141.065 46.2777C140.878 46.1709 140.705 46.0777 140.525 45.9918C140.518 45.985 140.504 45.9855 140.496 45.9787C140.41 45.9391 140.324 45.8996 140.245 45.8669C140.238 45.8601 140.223 45.8606 140.209 45.8469C140.123 45.8074 140.037 45.782 139.951 45.7566C139.951 45.7566 139.944 45.7498 139.937 45.7571C139.851 45.7317 139.765 45.7063 139.687 45.6878L139.673 45.6883C139.594 45.6697 139.516 45.6511 139.431 45.6399C139.416 45.6404 139.409 45.6335 139.395 45.634C139.227 45.6963 139.156 45.6846 139.078 45.6802C139.064 45.6806 139.064 45.6806 139.05 45.6811C138.894 45.6723 138.731 45.6707 138.583 45.6828C138.569 45.6833 138.569 45.6833 138.555 45.6838C138.477 45.6935 138.414 45.7027 138.344 45.7193C138.33 45.7197 138.323 45.7271 138.309 45.7275C138.238 45.7441 138.168 45.7606 138.099 45.7913C138.099 45.7913 138.092 45.7986 138.078 45.7991C138.015 45.8224 137.945 45.8531 137.875 45.8838L137.868 45.8911C137.799 45.9217 137.736 45.9592 137.674 45.9967C137.667 46.004 137.653 46.0045 137.646 46.0118C137.584 46.0493 137.529 46.0936 137.467 46.1453C137.46 46.1526 137.453 46.1599 137.446 46.1672C137.398 46.2042 137.336 46.2558 137.281 46.3143C136.646 46.9656 136.225 48.119 136.101 49.892C135.434 60.2302 144.213 65.6274 147.445 67.251C148.584 69.3277 149.82 71.3446 151.139 73.3021L151.883 74.3805C154.196 77.6909 156.765 80.8299 159.546 83.7565C155.037 81.8296 143.598 77.6973 138.942 82.9001C137.708 84.2792 137.291 85.5174 137.461 86.5799C137.468 86.5868 137.462 86.5941 137.469 86.6009C137.522 86.9104 137.624 87.2112 137.775 87.489L137.782 87.4959C137.933 87.7737 138.133 88.0429 138.368 88.2896L138.375 88.2964C138.61 88.5432 138.894 88.7811 139.206 88.9899C139.213 88.9967 139.213 88.9967 139.22 89.0035C139.278 89.044 139.343 89.0913 139.408 89.1245C139.668 89.2855 139.95 89.4386 140.245 89.5913C140.252 89.5982 140.274 89.6045 140.281 89.6113C140.346 89.6445 140.417 89.6704 140.489 89.7104C140.497 89.7172 140.511 89.7167 140.518 89.7236C140.741 89.8221 140.97 89.9134 141.214 90.0041C141.221 90.011 141.235 90.0105 141.243 90.0173C141.314 90.0432 141.386 90.069 141.458 90.0949C141.479 90.1013 141.508 90.1144 141.529 90.1208C141.601 90.1466 141.665 90.1657 141.744 90.1842C141.765 90.1906 141.787 90.1969 141.815 90.2101C142.051 90.2799 142.287 90.3497 142.522 90.4054C142.551 90.4186 142.579 90.4176 142.601 90.424C142.665 90.443 142.736 90.4547 142.807 90.4665C142.843 90.4723 142.886 90.485 142.922 90.4909C142.993 90.5026 143.057 90.5217 143.128 90.5334C143.171 90.5461 143.207 90.552 143.256 90.5574C143.327 90.5691 143.392 90.5881 143.456 90.593C143.491 90.5989 143.527 90.6048 143.562 90.6106C143.691 90.6346 143.819 90.6585 143.946 90.6683C143.996 90.6737 144.046 90.6791 144.089 90.6918C144.153 90.6967 144.21 90.7089 144.273 90.7138C144.323 90.7192 144.38 90.7314 144.437 90.7295C144.5 90.7344 144.557 90.7466 144.621 90.7515C144.678 90.7637 144.735 90.7618 144.799 90.7667C144.863 90.7716 144.912 90.777 144.976 90.7819C145.061 90.7932 145.139 90.7976 145.231 90.8015C145.303 90.8133 145.373 90.8109 145.444 90.8226C145.522 90.827 145.586 90.8319 145.664 90.8364C145.714 90.8418 145.771 90.8398 145.82 90.8452C145.884 90.8501 145.955 90.8477 146.019 90.8526C146.075 90.8507 146.125 90.8561 146.181 90.8542C146.252 90.8518 146.33 90.8562 146.394 90.8611C146.444 90.8665 146.486 90.865 146.542 90.8631C146.663 90.8661 146.776 90.8623 146.896 90.8653C146.925 90.8643 146.953 90.8633 146.988 90.8692C147.081 90.8731 147.172 90.863 147.264 90.8669C147.307 90.8655 147.363 90.8635 147.406 90.8621C147.476 90.8597 147.561 90.8568 147.632 90.8544C147.674 90.853 147.731 90.8511 147.773 90.8496C147.858 90.8467 147.935 90.837 148.02 90.8341C148.063 90.8327 148.105 90.8313 148.147 90.8298C148.267 90.8187 148.387 90.8075 148.507 90.7964C148.521 90.7959 148.542 90.7881 148.564 90.7944C148.669 90.7838 148.775 90.7731 148.881 90.7624C148.923 90.761 148.958 90.7527 149.008 90.744C149.085 90.7343 149.177 90.7241 149.254 90.7144C149.297 90.7129 149.346 90.7042 149.381 90.6959C149.465 90.6789 149.55 90.676 149.634 90.659C149.67 90.6507 149.712 90.6493 149.747 90.641C149.874 90.6226 149.986 90.6046 150.106 90.5793C150.12 90.5788 150.127 90.5715 150.134 90.5784C150.247 90.5604 150.352 90.5356 150.465 90.5176C150.5 90.5093 150.535 90.5011 150.584 90.4923C150.668 90.4753 150.753 90.4583 150.83 90.4344C150.872 90.4189 150.914 90.4174 150.956 90.4019C151.04 90.3848 151.117 90.361 151.202 90.344C151.237 90.3357 151.272 90.3274 151.307 90.3192C151.419 90.2871 151.538 90.2618 151.657 90.2224C151.657 90.2224 151.664 90.2151 151.671 90.2219C151.784 90.1898 151.896 90.1577 152.008 90.1256C152.043 90.1173 152.078 90.109 152.113 90.0866C152.19 90.0628 152.273 90.0316 152.35 90.0078C152.392 89.9922 152.427 89.9839 152.469 89.9684C152.546 89.9445 152.63 89.9134 152.7 89.8827C152.735 89.8744 152.77 89.852 152.805 89.8438C152.916 89.7975 153.021 89.7586 153.133 89.7123C154.779 89.0338 156.103 88.4087 157.159 87.8492C157.465 87.6832 157.742 87.5322 158.006 87.3817C158.27 87.2313 158.513 87.0886 158.734 86.9396C159.067 86.7302 159.364 86.529 159.619 86.3435C159.702 86.2841 159.785 86.2246 159.868 86.1652C160.185 85.928 160.433 85.7215 160.639 85.5306C160.694 85.4863 160.735 85.4424 160.783 85.3913C160.851 85.3182 160.927 85.2519 160.981 85.1935C162.71 86.9177 164.52 88.5684 166.399 90.1318L167.876 91.3339C170.631 93.5114 173.529 95.5072 176.548 97.3008C171.515 96.8279 157.022 96.1105 156.256 103.346C156.224 103.659 156.206 103.942 156.201 104.225C156.204 104.296 156.199 104.36 156.201 104.431L156.202 104.445C156.204 104.515 156.206 104.572 156.215 104.635L156.216 104.649C156.218 104.706 156.227 104.769 156.229 104.826L156.229 104.84C156.233 104.939 156.242 105.002 156.244 105.059L156.244 105.073C156.246 105.129 156.262 105.185 156.264 105.242C156.271 105.249 156.265 105.256 156.272 105.263C156.281 105.312 156.29 105.376 156.299 105.425C156.306 105.432 156.299 105.439 156.306 105.446C156.315 105.495 156.331 105.551 156.34 105.6C156.347 105.607 156.34 105.614 156.348 105.621C156.357 105.67 156.365 105.72 156.388 105.768C156.395 105.775 156.389 105.783 156.396 105.789C156.405 105.839 156.42 105.881 156.443 105.929C156.45 105.936 156.444 105.943 156.451 105.95C156.467 105.992 156.475 106.041 156.498 106.09C156.505 106.097 156.499 106.104 156.506 106.111C156.522 106.153 156.537 106.195 156.56 106.244C156.567 106.251 156.56 106.258 156.568 106.265C156.583 106.307 156.599 106.349 156.629 106.39C156.636 106.397 156.629 106.404 156.636 106.411C156.652 106.453 156.674 106.487 156.697 106.536C156.705 106.543 156.705 106.543 156.705 106.557C156.727 106.592 156.743 106.634 156.773 106.675C156.78 106.682 156.78 106.682 156.781 106.696C156.803 106.731 156.825 106.765 156.855 106.807C156.862 106.814 156.862 106.814 156.87 106.82C156.892 106.855 156.914 106.89 156.944 106.931C156.951 106.938 156.951 106.938 156.959 106.945C156.981 106.979 157.018 107.014 157.04 107.048C157.047 107.055 157.047 107.055 157.055 107.062C157.077 107.096 157.114 107.131 157.143 107.158L157.15 107.165C157.179 107.192 157.216 107.226 157.238 107.261L157.246 107.268C157.275 107.295 157.311 107.329 157.341 107.356L157.348 107.363C157.377 107.39 157.414 107.425 157.45 107.445C157.45 107.445 157.45 107.445 157.457 107.451C157.494 107.486 157.53 107.506 157.566 107.54C157.61 107.566 157.639 107.594 157.682 107.621C158.608 108.212 159.907 108.33 161.42 108.102C161.483 108.093 161.547 108.084 161.61 108.074C161.61 108.074 161.61 108.074 161.617 108.067C161.68 108.058 161.744 108.049 161.8 108.033L161.814 108.032C161.877 108.023 161.933 108.007 161.997 107.998C162.004 107.99 162.011 107.997 162.018 107.99C162.081 107.981 162.137 107.964 162.207 107.948C162.214 107.941 162.221 107.947 162.228 107.94C162.292 107.931 162.348 107.915 162.411 107.892C162.425 107.891 162.431 107.884 162.439 107.891C162.495 107.875 162.558 107.865 162.621 107.842C162.635 107.841 162.642 107.834 162.656 107.834C162.712 107.818 162.776 107.808 162.838 107.785C162.853 107.785 162.859 107.777 162.874 107.777C162.93 107.761 162.986 107.745 163.056 107.728C163.07 107.728 163.077 107.72 163.091 107.72C163.147 107.704 163.21 107.68 163.266 107.664C163.28 107.664 163.287 107.657 163.308 107.649C163.364 107.633 163.427 107.609 163.483 107.593C163.497 107.593 163.511 107.578 163.525 107.578C163.581 107.562 163.644 107.538 163.7 107.522C163.714 107.522 163.735 107.514 163.742 107.507C163.798 107.491 163.861 107.467 163.917 107.451C163.931 107.451 163.952 107.443 163.959 107.436C164.015 107.42 164.078 107.396 164.134 107.38C164.155 107.372 164.169 107.372 164.182 107.357C164.238 107.341 164.301 107.318 164.357 107.302C164.378 107.294 164.392 107.294 164.406 107.279C164.462 107.263 164.525 107.24 164.581 107.209C164.602 107.202 164.616 107.201 164.629 107.186C164.692 107.163 164.741 107.14 164.804 107.117C164.825 107.109 164.839 107.109 164.86 107.101C164.923 107.077 164.972 107.055 165.034 107.031C165.055 107.023 165.076 107.016 165.083 107.008C165.146 106.985 165.195 106.962 165.258 106.939C165.279 106.931 165.3 106.923 165.306 106.916C165.369 106.892 165.418 106.87 165.481 106.846C165.502 106.838 165.523 106.831 165.537 106.816C165.599 106.793 165.655 106.762 165.711 106.746C165.732 106.739 165.753 106.731 165.774 106.723C165.837 106.7 165.892 106.669 165.955 106.646C165.976 106.638 165.997 106.631 166.004 106.623C166.067 106.6 166.123 106.57 166.185 106.546C166.206 106.539 166.227 106.531 166.241 106.516C166.297 106.486 166.359 106.463 166.415 106.432C166.436 106.425 166.45 106.41 166.471 106.402C166.526 106.372 166.589 106.349 166.645 106.318C166.666 106.311 166.687 106.303 166.7 106.288C166.756 106.258 166.819 106.235 166.874 106.205C166.895 106.197 166.909 106.182 166.923 106.182C166.979 106.151 167.048 106.121 167.104 106.091C167.125 106.083 167.138 106.068 167.153 106.068C167.208 106.038 167.278 106.007 167.333 105.977C167.354 105.969 167.361 105.962 167.382 105.954C167.445 105.916 167.507 105.893 167.57 105.855C167.584 105.855 167.598 105.84 167.612 105.84C167.674 105.802 167.744 105.772 167.806 105.734C167.813 105.727 167.827 105.726 167.841 105.712C167.911 105.681 167.973 105.644 168.042 105.599C168.049 105.592 168.063 105.591 168.063 105.591C168.14 105.553 168.202 105.516 168.279 105.478C168.828 105.183 169.369 104.867 169.909 104.538C169.972 104.5 170.041 104.455 170.103 104.418C170.117 104.403 170.131 104.403 170.145 104.388C170.2 104.358 170.256 104.314 170.311 104.284C170.332 104.276 170.353 104.254 170.374 104.246C170.429 104.216 170.477 104.179 170.533 104.149C170.561 104.134 170.581 104.112 170.602 104.104C170.65 104.067 170.706 104.037 170.747 104.007C170.775 103.992 170.803 103.977 170.824 103.955C170.872 103.918 170.921 103.895 170.969 103.858C170.997 103.843 171.031 103.82 171.059 103.805C171.1 103.776 171.156 103.745 171.197 103.716C171.232 103.693 171.26 103.678 171.294 103.656C171.336 103.626 171.377 103.596 171.433 103.566C171.468 103.544 171.495 103.529 171.53 103.506C171.571 103.477 171.613 103.447 171.654 103.417C171.689 103.395 171.723 103.372 171.751 103.357C171.793 103.328 171.834 103.298 171.876 103.268C171.91 103.246 171.945 103.223 171.979 103.201C172.021 103.171 172.062 103.142 172.104 103.112C172.138 103.089 172.173 103.067 172.208 103.045C172.249 103.015 172.291 102.985 172.332 102.956C172.367 102.933 172.401 102.911 172.428 102.882C172.47 102.852 172.511 102.822 172.553 102.792C172.587 102.77 172.622 102.748 172.649 102.718C172.691 102.689 172.725 102.666 172.767 102.637C172.801 102.614 172.843 102.584 172.87 102.555C172.912 102.525 172.946 102.503 172.98 102.467C173.015 102.444 173.056 102.414 173.084 102.385C173.125 102.356 173.16 102.333 173.194 102.297C173.229 102.274 173.27 102.244 173.297 102.215C173.339 102.186 173.373 102.163 173.408 102.127C173.442 102.104 173.476 102.068 173.511 102.045C173.552 102.016 173.58 101.986 173.621 101.957C173.656 101.934 173.69 101.898 173.724 101.875C173.759 101.853 173.793 101.816 173.828 101.794C173.862 101.772 173.897 101.735 173.931 101.713C173.966 101.69 174 101.654 174.035 101.631C174.069 101.609 174.103 101.572 174.138 101.55C174.172 101.528 174.207 101.491 174.241 101.469C174.276 101.446 174.31 101.41 174.345 101.387C174.379 101.365 174.413 101.328 174.448 101.306C174.483 101.283 174.517 101.247 174.551 101.225C174.586 101.202 174.62 101.166 174.655 101.143C174.689 101.121 174.723 101.084 174.758 101.062C174.793 101.039 174.827 101.003 174.861 100.981C174.889 100.951 174.93 100.922 174.957 100.892C174.985 100.863 175.026 100.833 175.054 100.804C175.081 100.775 175.122 100.745 175.15 100.716C175.177 100.687 175.212 100.664 175.246 100.628C175.273 100.599 175.314 100.569 175.342 100.54C175.369 100.51 175.404 100.488 175.431 100.459C175.458 100.43 175.5 100.4 175.527 100.371C175.554 100.341 175.589 100.319 175.616 100.29C175.644 100.261 175.685 100.231 175.712 100.202C175.74 100.172 175.774 100.15 175.801 100.121C175.829 100.092 175.87 100.062 175.898 100.033C175.925 100.003 175.959 99.981 175.987 99.9518C176.014 99.9225 176.056 99.8928 176.083 99.8636C176.11 99.8344 176.137 99.8051 176.172 99.7827C176.199 99.7535 176.234 99.717 176.268 99.6946C176.295 99.6654 176.323 99.6361 176.357 99.6137C176.385 99.5845 176.412 99.5553 176.453 99.5256C176.481 99.4963 176.508 99.4671 176.535 99.4379C176.563 99.4086 176.597 99.3721 176.624 99.3429C176.651 99.3136 176.679 99.2844 176.699 99.2625C176.726 99.2333 176.754 99.204 176.788 99.1675C176.815 99.1383 176.843 99.109 176.863 99.0871C176.89 99.0579 176.918 99.0287 176.945 98.9994C176.972 98.9702 176.993 98.9483 177.02 98.9191C177.047 98.8898 177.075 98.8606 177.102 98.8314C177.129 98.8021 177.15 98.7802 177.177 98.751C177.204 98.7218 177.232 98.6925 177.259 98.6633C177.286 98.6341 177.307 98.6122 177.334 98.5829C177.361 98.5537 177.389 98.5245 177.416 98.4953C177.436 98.4733 177.464 98.4441 177.484 98.4222C177.512 98.3929 177.539 98.3637 177.573 98.3272C177.593 98.3053 177.621 98.276 177.641 98.2541C177.669 98.2249 177.703 98.1884 177.723 98.1523C177.73 98.145 177.743 98.1304 177.75 98.1231C179.972 99.3918 182.261 100.545 184.603 101.583C185.264 101.872 185.925 102.161 186.599 102.435L187.84 102.938C190.472 103.974 193.149 104.887 195.859 105.736C191.227 105.993 181.703 107.646 178.277 116.543C177.607 118.285 177.473 119.542 177.743 120.396C177.743 120.396 177.75 120.403 177.743 120.41C177.767 120.487 177.798 120.557 177.828 120.626C177.828 120.626 177.836 120.633 177.829 120.641C177.86 120.71 177.897 120.773 177.928 120.842C178.01 120.974 178.099 121.084 178.201 121.194C178.253 121.242 178.304 121.29 178.362 121.33L178.369 121.337C178.427 121.377 178.485 121.418 178.55 121.451C178.55 121.451 178.55 121.451 178.557 121.458C178.752 121.571 178.967 121.649 179.202 121.705C179.202 121.705 179.21 121.712 179.216 121.704C179.295 121.723 179.38 121.734 179.459 121.753C179.459 121.753 179.466 121.759 179.473 121.752C179.729 121.786 180.005 121.798 180.301 121.774L180.315 121.773C180.414 121.77 180.506 121.759 180.612 121.749L180.626 121.748C180.936 121.709 181.266 121.649 181.61 121.559C181.617 121.552 181.624 121.559 181.631 121.551C181.743 121.519 181.848 121.495 181.967 121.455C181.974 121.448 181.988 121.447 181.988 121.447C182.1 121.415 182.219 121.376 182.338 121.336L182.345 121.329C182.583 121.25 182.834 121.157 183.086 121.063C183.093 121.056 183.107 121.056 183.107 121.056C183.233 121.009 183.351 120.955 183.477 120.909C183.491 120.908 183.498 120.901 183.519 120.893C183.637 120.839 183.77 120.785 183.888 120.732C183.895 120.725 183.909 120.724 183.909 120.724C184.167 120.609 184.425 120.48 184.696 120.351C184.703 120.343 184.717 120.343 184.724 120.336C184.849 120.275 184.981 120.207 185.106 120.132C185.127 120.124 185.134 120.116 185.155 120.109C185.287 120.04 185.412 119.965 185.544 119.897C185.551 119.89 185.572 119.882 185.578 119.875C185.842 119.724 186.12 119.559 186.397 119.394C186.404 119.387 186.418 119.387 186.425 119.379C186.556 119.297 186.688 119.215 186.82 119.132C186.841 119.125 186.854 119.11 186.875 119.102C187.007 119.02 187.139 118.938 187.263 118.848C187.276 118.834 187.297 118.826 187.311 118.811C187.45 118.722 187.574 118.633 187.712 118.543C187.719 118.536 187.726 118.528 187.74 118.528C187.879 118.438 188.01 118.342 188.141 118.245C188.148 118.238 188.155 118.231 188.169 118.23C188.3 118.134 188.431 118.038 188.562 117.941C188.576 117.926 188.604 117.911 188.617 117.897C188.748 117.8 188.88 117.704 189.003 117.601C189.024 117.579 189.045 117.571 189.065 117.549C189.196 117.453 189.327 117.342 189.458 117.246C189.472 117.231 189.486 117.23 189.5 117.216C189.638 117.112 189.762 117.009 189.892 116.898C189.899 116.891 189.906 116.884 189.913 116.876C190.043 116.766 190.174 116.655 190.305 116.545C190.325 116.523 190.346 116.515 190.367 116.493C190.49 116.39 190.621 116.279 190.738 116.169C190.758 116.147 190.786 116.132 190.806 116.11C190.937 116 191.054 115.89 191.184 115.779C191.198 115.764 191.218 115.742 191.239 115.735C191.363 115.617 191.5 115.499 191.624 115.382L191.63 115.375C191.754 115.257 191.884 115.133 192.007 115.015C192.028 114.993 192.041 114.979 192.062 114.957C192.185 114.839 192.309 114.722 192.418 114.605C192.438 114.583 192.459 114.561 192.479 114.539C192.603 114.422 192.719 114.298 192.828 114.181C192.849 114.159 192.862 114.144 192.883 114.122C193.006 113.991 193.122 113.867 193.244 113.735C193.251 113.728 193.251 113.728 193.258 113.72C193.374 113.596 193.497 113.465 193.613 113.34C193.627 113.326 193.647 113.304 193.661 113.289C193.777 113.165 193.886 113.034 194.002 112.91C194.022 112.888 194.043 112.866 194.063 112.844C194.172 112.713 194.281 112.596 194.39 112.465C194.41 112.443 194.431 112.421 194.444 112.392C194.553 112.261 194.662 112.13 194.777 111.992C194.784 111.985 194.798 111.97 194.804 111.963C194.913 111.832 195.015 111.694 195.123 111.563C195.137 111.548 195.151 111.534 195.157 111.512C195.258 111.374 195.367 111.243 195.462 111.113C195.482 111.091 195.496 111.062 195.516 111.04C195.611 110.909 195.712 110.772 195.807 110.641C195.827 110.619 195.84 110.59 195.861 110.568C195.962 110.431 196.05 110.293 196.144 110.148C196.157 110.134 196.164 110.112 196.171 110.105C196.258 109.968 196.352 109.823 196.439 109.686C196.446 109.678 196.452 109.657 196.459 109.65C196.553 109.505 196.641 109.367 196.721 109.223C196.734 109.194 196.754 109.173 196.761 109.151C196.848 109.014 196.928 108.869 197.001 108.733C197.014 108.704 197.035 108.682 197.048 108.653C197.128 108.509 197.208 108.365 197.281 108.228C197.288 108.206 197.301 108.192 197.308 108.17C197.388 108.026 197.46 107.875 197.54 107.731C197.547 107.723 197.554 107.716 197.547 107.709C197.619 107.558 197.692 107.407 197.758 107.264C197.764 107.242 197.777 107.213 197.791 107.199C197.857 107.055 197.923 106.911 197.989 106.767C198.002 106.739 198.015 106.71 198.021 106.689C198.054 106.61 198.087 106.531 198.126 106.444C202.2 107.65 206.32 108.748 210.406 109.897L212.334 110.44C214.599 111.092 216.851 111.773 219.077 112.511C214.837 114.53 201.552 121.278 200.714 126.379C200.463 127.937 200.996 129.051 202.01 129.738C202.024 129.752 202.038 129.751 202.053 129.765C202.234 129.879 202.421 129.986 202.63 130.085C202.651 130.091 202.659 130.098 202.68 130.105C202.888 130.19 203.11 130.274 203.339 130.337C203.36 130.343 203.374 130.343 203.396 130.349C203.517 130.38 203.631 130.405 203.753 130.436C203.753 130.436 203.76 130.443 203.767 130.436C203.881 130.46 204.002 130.477 204.13 130.501C204.151 130.507 204.165 130.507 204.187 130.513C204.308 130.53 204.443 130.547 204.57 130.557C204.584 130.556 204.592 130.563 204.606 130.563C204.734 130.573 204.854 130.576 204.982 130.585C204.996 130.585 205.017 130.591 205.038 130.583C205.173 130.586 205.307 130.588 205.449 130.584C205.463 130.583 205.491 130.582 205.505 130.582C205.632 130.577 205.759 130.573 205.894 130.561C205.908 130.561 205.922 130.56 205.943 130.553C206.084 130.548 206.225 130.529 206.366 130.51C206.394 130.509 206.415 130.501 206.436 130.508C206.57 130.496 206.704 130.47 206.838 130.459C206.852 130.458 206.866 130.458 206.88 130.457C207.021 130.438 207.169 130.412 207.317 130.386C207.345 130.385 207.373 130.37 207.401 130.369C207.541 130.336 207.682 130.317 207.829 130.276C207.836 130.269 207.844 130.276 207.85 130.269C207.998 130.228 208.152 130.195 208.299 130.154C208.334 130.146 208.355 130.138 208.391 130.13C208.685 130.049 208.986 129.947 209.279 129.838C209.314 129.83 209.342 129.815 209.377 129.806C209.524 129.752 209.671 129.697 209.824 129.635C209.831 129.628 209.845 129.628 209.845 129.628C209.984 129.566 210.117 129.512 210.257 129.451C210.284 129.436 210.326 129.42 210.354 129.405C210.5 129.337 210.64 129.275 210.779 129.2C210.8 129.192 210.813 129.177 210.834 129.17C210.966 129.101 211.092 129.041 211.216 128.966C211.244 128.95 211.279 128.928 211.307 128.913C211.446 128.838 211.577 128.755 211.723 128.672C211.751 128.657 211.764 128.643 211.792 128.628C211.917 128.553 212.028 128.478 212.152 128.403C212.18 128.388 212.215 128.366 212.235 128.344C212.374 128.254 212.498 128.165 212.629 128.069C212.657 128.053 212.684 128.024 212.712 128.009C212.83 127.927 212.94 127.839 213.05 127.75C213.07 127.728 213.098 127.713 213.119 127.691C213.243 127.588 213.366 127.485 213.49 127.381C213.518 127.352 213.545 127.337 213.573 127.308C213.682 127.205 213.793 127.116 213.895 127.007C213.909 126.992 213.929 126.97 213.943 126.956C214.059 126.845 214.175 126.721 214.292 126.611C214.319 126.582 214.347 126.553 214.374 126.523C214.476 126.414 214.585 126.297 214.681 126.181C214.687 126.173 214.701 126.159 214.708 126.151C214.817 126.02 214.919 125.897 215.027 125.765C215.055 125.736 215.075 125.7 215.102 125.671C215.203 125.533 215.312 125.402 215.399 125.265C218.341 121.047 219.608 117.098 220.159 114.589C220.306 113.905 220.399 113.336 220.462 112.888C224.106 114.144 227.692 115.578 231.148 117.329L231.213 117.362C231.256 117.389 231.306 117.408 231.35 117.435L232.473 118.02C232.473 118.02 232.473 118.02 232.487 118.019C232.567 118.066 232.653 118.106 232.732 118.152L232.768 118.172C233.511 118.579 234.247 118.992 234.976 119.427C243.758 124.676 251.263 131.906 256.853 140.468C257.39 141.299 258.582 140.332 258.051 139.508C253.11 131.936 246.654 125.37 239.18 120.289C237.463 119.124 235.686 118.052 233.884 117.066L232.436 116.302C228.763 114.403 224.939 112.828 221.029 111.461C221.117 111.352 221.198 111.236 221.279 111.12C221.3 111.098 221.32 111.062 221.34 111.04C221.449 110.895 221.549 110.743 221.65 110.591C221.664 110.576 221.664 110.562 221.677 110.547C221.771 110.403 221.866 110.258 221.96 110.113C221.973 110.084 221.987 110.07 222.007 110.048C222.094 109.896 222.188 109.752 222.275 109.6C222.288 109.571 222.308 109.535 222.328 109.513C222.415 109.362 222.495 109.218 222.568 109.067C222.574 109.045 222.595 109.023 222.601 109.002C222.674 108.851 222.747 108.714 222.82 108.563C222.826 108.541 222.833 108.534 222.847 108.519C222.919 108.368 222.985 108.21 223.05 108.067C223.064 108.038 223.077 108.009 223.09 107.98C223.149 107.83 223.214 107.686 223.266 107.529C223.279 107.5 223.285 107.479 223.298 107.45C223.357 107.299 223.408 107.142 223.467 106.991L223.474 106.984C223.525 106.827 223.576 106.669 223.627 106.512C223.641 106.483 223.64 106.455 223.653 106.426C223.697 106.276 223.742 106.126 223.779 105.969C223.785 105.933 223.798 105.905 223.797 105.876C223.834 105.719 223.878 105.569 223.909 105.42C223.908 105.406 223.914 105.384 223.921 105.377C223.952 105.227 223.989 105.085 224.013 104.942C224.019 104.921 224.018 104.892 224.024 104.871C224.055 104.721 224.078 104.565 224.101 104.423C224.107 104.387 224.106 104.359 224.112 104.323C224.128 104.174 224.158 104.025 224.175 103.875C224.181 103.854 224.18 103.826 224.186 103.804C224.202 103.655 224.219 103.52 224.228 103.378C224.228 103.364 224.234 103.343 224.234 103.329C224.25 103.18 224.252 103.031 224.261 102.875C224.26 102.847 224.266 102.811 224.265 102.783C224.267 102.634 224.276 102.492 224.278 102.344C224.277 102.315 224.276 102.287 224.275 102.259C224.277 102.11 224.279 101.962 224.281 101.813L224.281 101.799C224.283 101.65 224.278 101.495 224.265 101.347C224.265 101.318 224.264 101.29 224.263 101.262C224.258 101.12 224.246 100.972 224.241 100.831C224.24 100.803 224.239 100.774 224.231 100.739C224.219 100.591 224.206 100.443 224.188 100.302C224.187 100.288 224.187 100.274 224.186 100.26C224.174 100.126 224.156 99.9847 224.137 99.8439C224.136 99.8156 224.128 99.7946 224.127 99.7664C224.108 99.6255 224.089 99.4847 224.063 99.3511C224.011 99.2751 224.01 99.2468 224.002 99.2117Z" fill="#3D4775"/>
<path d="M230.318 56.2346C230.318 56.2346 288.99 113.172 340.566 123.956C358.066 127.618 371.932 126.561 382.614 123.557C404.888 117.301 412.278 89.8707 396.133 73.4075C388.39 65.5118 376.912 57.7203 359.907 52.2141C309.794 35.9929 230.318 56.2346 230.318 56.2346Z" fill="#2F8C91"/>
<path d="M365.346 90.4241C361.829 89.4983 358.316 88.5687 354.798 87.643C351.813 74.6651 348.833 61.6834 345.843 48.7001C345.422 48.6208 345.001 48.5415 344.579 48.4716C347.555 61.4145 350.531 74.3573 353.508 87.3002C350.187 86.424 346.856 85.5463 343.535 84.6701C340.48 72.2995 337.98 59.8038 336.048 47.2231C335.646 47.1802 335.245 47.128 334.842 47.0851C336.751 59.5998 339.219 72.0188 342.235 84.3259C339.04 83.4835 335.845 82.6411 332.65 81.7988C330.272 69.9637 327.898 58.134 325.52 46.299C325.115 46.2748 324.709 46.2507 324.299 46.2304C326.657 57.9715 329.015 69.7219 331.373 81.4629C328.024 80.5823 324.676 79.6923 321.326 78.8117C318.149 67.96 315.418 56.9856 313.156 45.9156C312.752 45.9156 312.353 45.9116 311.953 45.917C314.185 56.8673 316.87 67.7246 319.997 78.4631C316.55 77.553 313.103 76.643 309.65 75.7369C306.931 65.9523 304.637 56.0608 302.783 46.0934C302.387 46.1042 301.99 46.1243 301.594 46.1351C303.419 55.9735 305.665 65.7331 308.331 75.3898C305.524 74.6504 302.714 73.9055 299.907 73.1661C297.09 64.4251 294.675 55.5688 292.673 46.623C292.274 46.6525 291.881 46.678 291.482 46.7075C293.443 55.5082 295.803 64.2123 298.555 72.8092C295.131 71.9075 291.707 71.0058 288.283 70.1041C285.157 62.8579 282.831 55.3184 281.331 47.5996C280.94 47.6399 280.549 47.6803 280.153 47.7245C281.612 55.2646 283.858 62.6289 286.851 69.73C285.686 69.4211 284.516 69.1161 283.352 68.8072C283.2 68.6591 282.983 68.5826 282.744 68.6464C281.897 68.4247 281.056 68.1992 280.209 67.9775C277.074 61.8271 275.094 55.2031 274.346 48.3812C273.954 48.4308 273.567 48.4766 273.175 48.5263C273.911 55.1404 275.771 61.5686 278.698 67.5769C276.13 66.8983 273.567 66.2251 270.999 65.5465C268.845 60.3281 267.091 54.9797 265.743 49.5216C265.349 49.5806 264.961 49.6357 264.568 49.6948C265.867 54.9634 267.546 60.1326 269.586 65.1753C267.2 64.5487 264.816 63.9127 262.43 63.2861C261.559 59.6214 260.688 55.966 259.818 52.3013C259.672 51.6992 259.534 51.0838 259.388 50.4817C258.998 50.5462 258.614 50.6067 258.23 50.6672C258.446 51.5676 258.644 52.4651 258.852 53.3547C259.609 56.5518 260.372 59.7449 261.129 62.9419C259.109 62.4099 257.097 61.8794 255.076 61.3474C253.733 58.2229 252.52 55.0466 251.455 51.8213C251.06 51.8897 250.669 51.9635 250.284 52.0334C251.278 55.0514 252.395 58.0309 253.636 60.9625C251.279 60.3402 248.926 59.7234 246.574 59.0972C245.806 57.1298 245.131 55.1382 244.557 53.1144C244.161 53.1922 243.774 53.2714 243.392 53.3467C243.91 55.1608 244.503 56.9624 245.174 58.733C243.752 58.3603 242.335 57.9837 240.913 57.6111C240.454 56.4529 239.99 55.2987 239.535 54.1459C239.133 54.2276 238.75 54.3123 238.372 54.3929C238.751 55.3424 239.13 56.2919 239.505 57.236C237.381 56.6785 235.263 56.1171 233.135 55.5542C231.307 55.9812 230.318 56.236 230.318 56.236C230.318 56.236 231.029 56.93 232.366 58.1709C234.732 58.7946 237.099 59.4183 239.466 60.042C238.329 60.5037 237.237 61.0491 236.184 61.658C236.484 61.9245 236.787 62.1965 237.099 62.4793C238.468 61.7179 239.911 61.0687 241.432 60.5558C243.083 60.9878 244.734 61.4291 246.385 61.861C244.168 62.7598 242.059 63.8382 240.059 65.0962C240.358 65.3627 240.663 65.6254 240.976 65.8988C243.097 64.5875 245.357 63.4749 247.724 62.5849C247.884 62.5281 247.983 62.4236 248.045 62.3038C251.085 63.108 254.121 63.9067 257.161 64.7108C253.489 66.5159 249.89 68.4518 246.36 70.5039C246.675 70.768 246.993 71.0375 247.317 71.303C251.092 69.1162 254.952 67.0672 258.888 65.1639C261.62 65.8822 264.356 66.6059 267.088 67.3242C262.083 69.8818 257.14 72.5687 252.273 75.3679C252.597 75.6334 252.923 75.8896 253.257 76.1566C258.357 73.2307 263.536 70.4316 268.791 67.7689C272.141 68.6496 275.494 69.5356 278.844 70.4162C272.099 73.5868 265.484 77.0124 259.008 80.6796C259.343 80.9372 259.678 81.1949 260.017 81.4579C266.737 77.6654 273.611 74.1361 280.618 70.8766C282.826 71.4566 285.038 72.0421 287.246 72.6221C280.482 77.3036 273.718 81.985 266.953 86.6665C267.286 86.9094 267.618 87.1522 267.955 87.4005C274.882 82.6101 281.805 77.8142 288.738 73.0198C293.022 74.15 297.307 75.2802 301.592 76.4104C292.036 80.9488 282.742 85.997 273.752 91.5329C274.104 91.7787 274.451 92.0191 274.803 92.265C284.019 86.6155 293.546 81.4739 303.351 76.8732C307.276 77.9049 311.195 78.9404 315.124 79.9775C305.327 86.4859 295.525 92.9982 285.728 99.5067C286.092 99.7352 286.45 99.9677 286.81 100.191C296.753 93.5853 306.697 86.9797 316.636 80.3687C318.133 80.7624 319.63 81.1562 321.122 81.5538C322.942 82.0309 324.76 82.5174 326.58 82.9944C316.002 90.3404 305.418 97.6903 294.839 105.036C295.21 105.252 295.585 105.472 295.961 105.684C306.66 98.2507 317.369 90.8194 328.068 83.3867C330.874 84.1261 333.681 84.8655 336.488 85.6049C326.406 94.1484 316.324 102.692 306.246 111.241C306.625 111.433 307.004 111.626 307.389 111.815C317.494 103.246 327.603 94.6828 337.709 86.1142C337.765 86.0654 337.802 86.0136 337.839 85.9619C341.853 87.0215 345.862 88.0756 349.875 89.1352C338.702 98.0902 327.525 107.04 316.353 115.995C316.759 116.168 317.17 116.346 317.576 116.519C328.815 107.516 340.053 98.5141 351.288 89.5064C354.295 90.3007 357.299 91.0896 360.306 91.884C350.478 101.717 340.648 111.559 330.82 121.392C331.247 121.525 331.67 121.653 332.099 121.776C341.94 111.926 351.79 102.077 361.631 92.2272C364.83 93.075 368.03 93.9134 371.229 94.7612C362.848 105.215 353.878 115.195 344.364 124.659C344.848 124.743 345.322 124.826 345.797 124.899C355.244 115.458 364.151 105.507 372.47 95.0818C377.662 96.4479 382.853 97.8232 388.046 99.1893C380.566 108.57 372.636 117.584 364.297 126.219C364.874 126.203 365.437 126.18 366.006 126.152C374.134 117.686 381.861 108.851 389.158 99.677C389.201 99.6213 389.234 99.5641 389.254 99.5001C391.439 100.072 393.623 100.653 395.808 101.225C390.172 108.969 384.532 116.707 378.902 124.448C379.496 124.319 380.083 124.179 380.659 124.038C386.116 116.54 391.573 109.041 397.033 101.548C399.194 102.12 401.36 102.689 403.517 103.256C403.782 102.392 404.006 101.507 404.196 100.621C403.598 100.462 402.999 100.302 402.401 100.143C400.929 91.8968 399.457 83.6506 397.989 75.4098C397.518 74.8342 397.015 74.2729 396.493 73.718C398.041 82.4167 399.594 91.1114 401.147 99.8155C399.215 99.3021 397.283 98.7981 395.352 98.2847C393.429 88.0097 391.496 77.7332 389.573 67.4581C389.118 67.0957 388.648 66.7358 388.172 66.3798C390.144 76.902 392.121 87.4296 394.088 97.9557C391.09 97.1629 388.096 96.3754 385.098 95.5825C383.127 83.8869 381.15 72.1951 379.178 60.4995C378.744 60.2552 378.309 60.011 377.86 59.7692C379.855 71.5978 381.855 83.4225 383.845 95.2457C381.23 94.5597 378.616 93.8644 376.001 93.1785C375.926 93.1574 375.856 93.1417 375.781 93.1206C373.048 80.7758 370.972 68.3071 369.551 55.7574C369.141 55.5791 368.725 55.4048 368.303 55.2344C369.71 67.8442 371.781 80.3744 374.5 92.7793C374.163 92.6891 373.827 92.5989 373.494 92.5141C373.426 92.4797 373.352 92.4586 373.284 92.4577C371.095 91.8806 368.905 91.3034 366.712 90.7209C362.806 77.7161 359.539 64.5416 356.906 51.2349C356.482 51.1167 356.058 50.9892 355.628 50.8749C358.213 64.2413 361.47 77.4143 365.346 90.4241Z" fill="#286F7F"/>
<path d="M308.722 59.2745C307.382 67.9826 312.541 79.2333 314.566 83.2219C309.788 79.9317 304.935 76.9618 300.007 74.327C298.683 45.1848 283.506 18.4233 283.506 18.4233C283.506 18.4233 285.75 24.8937 287.994 43.1497C289.977 59.2638 296.444 70.0636 298.999 73.7936C294.355 71.3597 289.662 69.2239 284.922 67.3919C283.204 66.728 281.478 66.1067 279.751 65.5247C275.325 57.7762 278.351 44.2212 275.881 31.5251C274.024 21.9698 259.654 13.2582 259.654 13.2582C259.654 13.2582 271.694 22.3291 270.212 37.2163C269.027 49.1066 276.55 61.1179 279.627 65.4841C274.128 63.6413 268.579 62.2053 263.001 61.1874C262.523 58.5219 260.836 49.6251 258.259 40.9128C255.218 30.6494 244.171 8.8251 244.171 8.8251C244.171 8.8251 244.48 18.4051 247.668 31.5459C250.247 42.1619 260.03 57.3129 262.549 61.1017C257.911 60.2752 253.253 59.7306 248.578 59.4736C247.797 56.8496 245.114 47.9781 241.86 38.8771C237.98 28.0348 220.535 3.51898 220.535 3.51898C220.535 3.51898 223.4 11.5708 229.358 28.8505C234.484 43.7046 245.163 56.2291 248.062 59.4537C243.847 59.2399 239.622 59.2562 235.391 59.5085C232.361 57.9811 223.262 54.7835 204.577 58.279C182.601 62.3874 175.877 65.4105 175.877 65.4105C175.877 65.4105 216.103 71.8507 235.184 61.0695C239.02 60.8321 242.777 60.8001 246.458 60.9341C242.881 63.7093 230.196 73.9848 220.109 87.75C208.251 103.939 205.306 109.21 205.306 109.21C205.306 109.21 230.528 87.2144 237.638 76.6009C243.246 68.2255 246.098 62.8574 247.057 60.963C252.083 61.1826 256.964 61.737 261.678 62.5606C258.216 65.3195 245.32 76.2526 240.998 88.9586C235.987 103.691 225.652 111.165 225.652 111.165C225.652 111.165 237.253 106.514 246.945 88.3731C254.987 73.3247 260.415 65.0165 262.038 62.6197C268.223 63.7236 274.127 65.2913 279.724 67.212C276.492 69.3185 266.802 76.3239 261.01 87.8278C253.979 101.79 240.991 115.506 240.991 115.506C240.991 115.506 261.273 102.381 271.563 86.29C278.984 74.6857 280.507 69.5488 280.779 67.5804C287.136 69.8141 293.096 72.4888 298.626 75.3911C295.626 76.8211 285.954 82.0821 276.769 94.2088C265.717 108.796 257.195 120.103 257.195 120.103C257.195 120.103 292.924 92.8932 299.308 75.7463C304.787 78.6686 309.832 81.8128 314.412 85.0015C311.66 85.9478 303.451 89.4647 297.163 99.2345C289.5 111.141 284.341 114.665 276.902 118.458C276.902 118.458 293.526 113.223 299.676 105.039C306.868 95.4651 309.861 87.922 314.58 85.1191C317.639 87.2498 320.482 89.3976 323.109 91.493C344.197 108.366 356.166 126.218 356.29 126.398C356.53 126.754 357.008 126.857 357.369 126.629C357.413 126.597 357.457 126.566 357.498 126.528C357.745 126.277 357.792 125.879 357.591 125.563C357.472 125.38 345.392 107.357 324.122 90.3279C321.231 88.0126 318.304 85.8257 315.342 83.7579C315.304 80.1239 315.198 66.8556 315.706 58.1304C316.297 47.9425 300.673 28.5259 300.673 28.5259C300.673 28.5259 310.383 48.5026 308.722 59.2745Z" fill="#E5674E"/>
<path d="M107.68 3.8618C107.68 3.8618 16.2752 19.4697 -19.1057 60.1975C-31.1121 74.0223 -36.0909 87.6949 -37.4181 99.7306C-40.1955 124.833 -12.08 150.602 13.9785 146.854C26.4802 145.057 40.5294 139.706 54.4327 127.614C95.3808 91.9985 107.68 3.8618 107.68 3.8618Z" fill="#BAE3DD"/>
<path d="M8.23868 106.415C10.8748 103.77 13.4983 101.125 16.1344 98.4796C32.3295 104.622 48.5322 110.771 64.7272 116.913C65.0072 116.577 65.2796 116.235 65.552 115.892C49.3973 109.764 33.2426 103.635 17.0955 97.5135C19.5803 95.0119 22.0776 92.5108 24.5624 90.0092C40.0958 95.6732 55.521 101.929 70.7902 108.786C71.0247 108.441 71.2592 108.097 71.4887 107.759C56.3079 100.936 40.9711 94.6848 25.5336 89.0315C27.92 86.6276 30.319 84.2243 32.7053 81.8203C47.3175 87.7409 61.9373 93.6679 76.5495 99.5885C76.7613 99.225 76.968 98.8673 77.1722 98.4974C62.6686 92.6183 48.165 86.7392 33.6614 80.86C36.1739 78.3416 38.6738 75.8226 41.1863 73.3043C55.0352 77.807 68.8188 82.8071 82.5118 88.3031C82.6908 87.932 82.8748 87.5551 83.0538 87.1839C69.5148 81.7376 55.8827 76.7751 42.1903 72.3041C44.7684 69.7105 47.3515 67.1112 49.9372 64.524C62.3596 68.7162 74.7117 73.3812 86.9606 78.5115C87.1194 78.1334 87.2832 77.7494 87.442 77.3713C75.3623 72.3035 63.1768 67.6888 50.9311 63.5354C53.0349 61.4252 55.1312 59.3086 57.2351 57.1984C68.5084 60.5809 79.7214 64.4248 90.8641 68.7114C91.0078 68.3205 91.1514 67.9296 91.3026 67.5451C80.3543 63.3222 69.3205 59.5292 58.2491 56.1866C60.8121 53.6104 63.375 51.0342 65.938 48.458C75.6328 50.5277 85.3054 53.543 94.8197 57.4488C94.9507 57.0573 95.0741 56.6594 95.2051 56.2678C85.913 52.4391 76.4827 49.4779 67.0076 47.3826C67.8804 46.5027 68.7482 45.6285 69.6286 44.755C69.8633 44.7121 70.0576 44.5648 70.0826 44.2948C70.7133 43.6623 71.349 43.024 71.9796 42.3915C80.4294 43.7013 88.8952 46.4106 97.0413 50.4066C97.1648 50.0086 97.2756 49.6101 97.399 49.2121C89.4928 45.3484 81.2995 42.6584 73.1123 41.2589C75.0345 39.3268 76.9517 37.4004 78.8739 35.4682C85.8117 37.0481 92.7222 39.0968 99.5748 41.5889C99.6831 41.1781 99.7939 40.7796 99.9097 40.3752C93.2919 37.9609 86.6314 35.9726 79.9334 34.4045C81.7219 32.6105 83.5104 30.8165 85.2863 29.0219C89.864 30.728 94.4544 32.4346 99.0321 34.1407C99.7896 34.4187 100.55 34.709 101.307 34.987C101.41 34.582 101.514 34.1771 101.612 33.7779C100.488 33.3615 99.367 32.9271 98.256 32.5112C94.254 31.0201 90.2595 29.5354 86.2575 28.0443C87.766 26.5261 89.2745 25.0078 90.783 23.4896C94.9664 24.3806 99.1424 25.4461 103.306 26.6617C103.406 26.2446 103.495 25.8269 103.585 25.4213C99.6792 24.2725 95.7785 23.2686 91.8577 22.4085C93.626 20.6377 95.3817 18.8662 97.1501 17.0954C99.743 17.7281 102.328 18.4749 104.904 19.3238C104.992 18.9061 105.08 18.4883 105.158 18.0822C102.843 17.3122 100.522 16.6386 98.1995 16.0431C99.264 14.9736 100.329 13.904 101.393 12.8344C102.918 13.1981 104.451 13.5681 105.98 13.926C106.066 13.4961 106.141 13.0777 106.219 12.6715C104.965 12.3753 103.707 12.0669 102.453 11.7707C104.044 10.1721 105.631 8.5793 107.223 6.98074C107.534 4.96412 107.68 3.86187 107.68 3.86187C107.68 3.86187 106.57 4.04895 104.553 4.44514C102.779 6.22177 101.014 8.00479 99.2352 9.7872C99.2166 8.40564 99.0769 7.01215 98.8487 5.61436C98.4121 5.70765 97.9628 5.80033 97.4984 5.91035C97.7672 7.71407 97.8593 9.50918 97.7646 11.2771C96.5235 12.5189 95.295 13.7614 94.0538 15.0032C94.0142 12.3184 93.717 9.59687 93.1699 6.87525C92.7358 6.98072 92.2941 7.0798 91.8398 7.17825C92.3945 10.057 92.6615 12.9338 92.618 15.7593C92.6131 15.946 92.6864 16.1184 92.79 16.256C90.5172 18.5449 88.2367 20.8274 85.9639 23.1163C85.5366 18.4471 84.9301 13.7571 84.1495 9.04057C83.7103 9.15183 83.2585 9.26246 82.8093 9.38529C83.6306 14.4173 84.2524 19.4216 84.6723 24.416C82.6265 26.4748 80.5807 28.5335 78.5323 30.5801C77.8312 24.1432 76.9636 17.686 75.9368 11.2151C75.4876 11.3379 75.051 11.4613 74.5967 11.5899C75.6741 18.3648 76.5672 25.1246 77.2685 31.8631C74.756 34.3815 72.2511 36.9062 69.7436 39.4188C69.1244 30.942 68.1493 22.4056 66.841 13.8289C66.3943 13.9639 65.9476 14.0989 65.5008 14.2339C66.8422 23.1197 67.8175 31.9576 68.4142 40.7468C66.7543 42.4084 65.1071 44.0706 63.4522 45.7264C61.1133 36.1891 58.7693 26.6576 56.4304 17.1203C56.0039 17.2623 55.5774 17.4043 55.1458 17.5521C57.5455 27.3215 59.9376 37.0844 62.3423 46.848C59.1386 50.0682 55.9299 53.2943 52.7262 56.5146C51.8042 44.4779 50.1653 32.328 47.8397 20.1204C47.4031 20.274 46.969 20.4398 46.5274 20.5992C48.8809 33.0914 50.515 45.5184 51.4094 57.8432C48.468 60.7928 45.5343 63.7489 42.598 66.6928C39.5217 53.0681 36.4454 39.4434 33.3616 25.8123C32.9376 25.9966 32.5187 26.1752 32.0948 26.3595C35.2191 40.1855 38.3511 54.018 41.4754 67.844C40.3529 68.965 39.2379 70.0924 38.1153 71.2134C36.7506 72.5818 35.3859 73.9503 34.0338 75.3194C30.3407 60.3804 26.6501 45.4537 22.957 30.5148C22.5432 30.7177 22.1344 30.9148 21.7205 31.1177C25.4541 46.2214 29.1877 61.3251 32.9238 76.441C30.82 78.5512 28.7237 80.6678 26.6199 82.778C21.3362 67.4904 16.0501 52.1905 10.7664 36.9028C10.3753 37.1249 9.98419 37.347 9.60065 37.5755C14.8995 52.9062 20.1983 68.2368 25.4971 83.5674C25.5274 83.6533 25.5679 83.7276 25.6184 83.7904C22.6165 86.8095 19.6146 89.8285 16.6052 92.8412C11.3434 76.2463 6.07651 59.6572 0.814713 43.0622C0.431194 43.3209 0.0476804 43.5796 -0.328266 43.8446C4.96388 60.5254 10.2586 77.2184 15.5507 93.8992C13.3031 96.1592 11.0555 98.4192 8.80278 100.685C1.92586 84.7348 -4.94853 68.7969 -11.8255 52.8469C-12.1686 53.1497 -12.5091 53.4647 -12.8446 53.7739C-5.95762 69.7426 0.92941 85.7113 7.80886 101.674C5.41745 104.083 3.01846 106.487 0.627047 108.896C-7.6048 93.8811 -15.029 78.6338 -21.6228 63.2341C-21.9356 63.6228 -22.2408 64.018 -22.5409 64.4073C-15.9446 79.7288 -8.52044 94.8855 -0.303796 109.828C-4.18859 113.738 -8.07591 117.637 -11.9607 121.547C-19.3585 108.11 -26.148 94.5035 -32.3191 80.7763C-32.5611 81.3252 -32.7853 81.869 -33.0096 82.4128C-26.9422 95.8214 -20.2741 109.115 -13.028 122.243C-12.98 122.324 -12.9295 122.386 -12.8714 122.456C-14.5035 124.1 -16.1432 125.739 -17.7753 127.384C-24.1311 116.795 -30.4743 106.206 -36.8301 95.6172C-36.9458 96.2627 -37.0514 96.8967 -37.1418 97.5434C-30.9932 107.797 -24.8446 118.05 -18.6885 128.31C-20.3054 129.937 -21.9224 131.565 -23.547 133.186C-22.6705 134.036 -21.7637 134.852 -20.8266 135.634C-20.3776 135.179 -19.9336 134.73 -19.477 134.282C-9.37437 138.585 0.720742 142.881 10.8234 147.183C11.6943 147.135 12.5651 147.057 13.4233 146.948C2.77269 142.414 -7.8855 137.873 -18.5361 133.339C-17.0881 131.891 -15.6427 130.43 -14.1947 128.981C-1.56709 134.25 11.0606 139.519 23.6907 144.801C24.3091 144.62 24.9324 144.433 25.5533 144.234C12.6176 138.836 -0.318108 133.437 -13.2488 128.032C-11.0062 125.778 -8.76358 123.524 -6.521 121.27C7.75061 127.475 22.0273 133.675 36.2989 139.88C36.7682 139.644 37.2426 139.402 37.7221 139.154C23.2863 132.88 8.85062 126.606 -5.58511 120.332C-3.63263 118.366 -1.66752 116.399 0.284956 114.432C0.335408 114.375 0.393439 114.323 0.451459 114.272C15.8058 120.216 31.0168 126.853 46.0237 134.162C46.4122 133.897 46.7932 133.627 47.1818 133.362C32.1142 126.003 16.8351 119.308 1.4151 113.318C1.66231 113.065 1.92215 112.812 2.16935 112.559C2.24254 112.52 2.29299 112.462 2.32323 112.397C3.96039 110.747 5.60512 109.103 7.24228 107.452C23.8811 112.754 40.4295 118.763 56.842 125.47C57.17 125.155 57.4979 124.839 57.8259 124.523C41.4158 117.768 24.8699 111.741 8.23868 106.415Z" fill="#97C9CE"/>
<path d="M34.3551 97.2577C37.9617 105.689 35.6182 118.234 34.5936 122.727C38.5877 118.267 42.7533 114.12 47.0697 110.293C40.9139 80.6788 49.4074 50.1342 49.4074 50.1342C49.4074 50.1342 48.7962 57.1741 51.2195 76.0624C53.3593 92.731 49.5819 105.146 47.9473 109.503C52.0278 105.941 56.2419 102.668 60.5796 99.6829C62.1476 98.6002 63.7408 97.5691 65.3412 96.5683C67.8392 87.7236 61.2691 74.8124 60.504 61.4708C59.932 51.4177 72.2556 39.2174 72.2556 39.2174C72.2556 39.2174 62.3804 51.2254 67.7165 65.8328C71.9835 77.4968 67.4451 91.3837 65.4472 96.5088C70.5457 93.3359 75.8074 90.5633 81.2125 88.1891C81.0131 85.394 80.4246 76.051 80.804 66.6676C81.2494 55.6201 86.8328 31.0367 86.8328 31.0367C86.8328 31.0367 88.9943 40.7402 89.1374 54.717C89.262 66.0041 83.2313 83.5897 81.6518 88.0018C86.1427 86.0583 90.7282 84.3903 95.4075 83.0075C95.5223 80.1817 95.9581 70.6256 96.9214 60.6924C98.0842 48.8504 109.469 20.0216 109.469 20.0216C109.469 20.0216 108.635 28.8003 107.039 47.5997C105.671 63.7614 98.062 78.9106 95.9446 82.8488C100.167 81.6222 104.458 80.629 108.819 79.8596C111.502 77.5936 119.903 72.1912 139.768 71.2214C163.125 70.0752 170.725 71.488 170.725 71.488C170.725 71.488 131.568 87.6313 109.439 81.3786C105.489 82.0569 101.662 82.9242 97.97 83.9522C102.318 85.8795 117.833 93.161 131.604 104.573C147.807 117.995 152.146 122.58 152.146 122.58C152.146 122.58 120.895 106.534 110.941 97.5741C103.099 90.5063 98.8109 85.7976 97.3523 84.1134C92.3072 85.5419 87.5052 87.2693 82.9319 89.2349C87.1479 91.1799 103.058 99.0607 110.713 110.796C119.588 124.401 132.001 129.424 132.001 129.424C132.001 129.424 119.032 127.542 104.528 111.636C92.4909 98.4453 84.847 91.4054 82.5867 89.3814C76.5983 91.9792 71.0148 94.9697 65.8266 98.2431C69.6469 99.5888 81.2762 104.293 90.1221 114.467C100.853 126.808 117.556 137.478 117.556 137.478C117.556 137.478 93.5922 129.161 79.0118 115.462C68.4914 105.581 65.628 100.785 64.8433 98.8751C58.9653 102.649 53.6073 106.767 48.7489 111.019C52.1664 111.735 63.3267 114.697 75.7753 124.684C90.7458 136.689 102.304 146.003 102.304 146.003C102.304 146.003 59.0448 127.244 48.1578 111.538C43.3501 115.785 39.042 120.167 35.2128 124.473C38.2481 124.769 47.4921 126.321 56.3825 134.631C67.2211 144.758 73.3622 147.056 81.8885 149.087C81.8885 149.087 63.6692 147.824 55.325 141.077C45.5621 133.182 40.5824 126.325 35.0768 124.638C32.5274 127.509 30.1917 130.351 28.0652 133.102C11.0022 155.129 3.46267 175.947 3.38359 176.148C3.23355 176.569 2.77149 176.784 2.34348 176.636C2.28466 176.621 2.23763 176.587 2.18969 176.563C1.87674 176.366 1.72252 175.977 1.84712 175.613C1.91716 175.402 9.53576 154.383 26.7277 132.16C29.06 129.141 31.4719 126.237 33.9433 123.448C33.0518 119.79 29.7381 106.424 26.9757 97.7723C23.7565 87.6761 34.5998 64.4013 34.5998 64.4013C34.5998 64.4013 29.9025 86.822 34.3551 97.2577Z" fill="#FCF4DF"/>
<path d="M268.803 19.4574C268.803 19.4574 299.6 94.766 342.545 125.004C357.116 135.266 370.262 139.772 381.274 141.238C404.232 144.301 422.1 122.096 413.947 100.644C410.038 90.3565 402.66 78.6894 389.289 66.9332C349.883 32.2936 268.803 19.4574 268.803 19.4574Z" fill="#1A4143"/>
<path d="M378.833 104.077C375.981 101.84 373.135 99.6018 370.283 97.3652C372.791 84.3005 375.306 71.2343 377.813 58.1631C377.459 57.9242 377.105 57.6854 376.746 57.4546C374.243 70.4836 371.74 83.5127 369.238 96.5418C366.546 94.4282 363.846 92.3095 361.154 90.196C363.353 77.66 366.112 65.2284 369.426 52.9434C369.074 52.7453 368.728 52.5392 368.376 52.3411C365.067 64.5563 362.31 76.905 360.1 89.3674C357.511 87.3347 354.921 85.3019 352.331 83.2691C354.934 71.4908 357.539 59.719 360.143 47.9407C359.781 47.7586 359.419 47.5765 359.05 47.3958C356.467 59.0803 353.879 70.7729 351.295 82.4574C348.579 80.3285 345.868 78.1916 343.152 76.0628C344.624 64.8695 346.557 53.7404 348.957 42.7085C348.586 42.5489 348.222 42.3879 347.853 42.2349C345.474 53.1454 343.547 64.1493 342.074 75.2189C339.28 73.0245 336.486 70.8302 333.685 68.6372C335.147 58.6022 337.042 48.6372 339.371 38.7766C339.004 38.6301 338.631 38.4917 338.264 38.3452C335.96 48.0764 334.074 57.9017 332.616 67.7985C330.34 66.0133 328.063 64.2215 325.788 62.4363C326.738 53.3184 328.103 44.2539 329.884 35.2703C329.506 35.1399 329.135 35.008 328.757 34.8776C326.998 43.712 325.644 52.6157 324.692 61.5757C321.916 59.3981 319.14 57.2204 316.364 55.0428C316.426 47.1722 317.341 39.3486 319.085 31.687C318.711 31.5696 318.336 31.4523 317.955 31.3364C316.245 38.8183 315.328 46.4498 315.201 54.1349C314.258 53.3923 313.308 52.6511 312.365 51.9085C312.285 51.7127 312.117 51.5569 311.873 51.5211C311.185 50.9838 310.505 50.4451 309.818 49.9078C309.429 43.0373 310.291 36.1886 312.363 29.6454C311.983 29.5361 311.61 29.4253 311.23 29.3159C309.231 35.6642 308.338 42.2858 308.594 48.9445C306.513 47.3093 304.434 45.6806 302.353 44.0454C302.487 38.4157 303.041 32.8247 304.011 27.2937C303.626 27.1924 303.248 27.0896 302.863 26.9882C301.924 32.3265 301.375 37.7239 301.207 43.1477C299.272 41.6318 297.342 40.108 295.407 38.5922C296.09 34.8922 296.769 31.2003 297.452 27.5003C297.562 26.8914 297.684 26.2731 297.794 25.6642C297.41 25.5694 297.033 25.4731 296.657 25.3769C296.491 26.287 296.309 27.1868 296.14 28.0838C295.543 31.3109 294.951 34.5365 294.353 37.7636C292.715 36.4786 291.085 35.1987 289.446 33.9136C289.477 30.5218 289.649 27.1337 289.976 23.7595C289.586 23.6661 289.198 23.5794 288.816 23.4911C288.507 26.6478 288.328 29.8176 288.281 32.9926C286.37 31.4921 284.461 29.9981 282.557 28.4961C282.649 26.3913 282.834 24.3005 283.126 22.2206C282.731 22.1352 282.344 22.055 281.963 21.9733C281.705 23.8393 281.521 25.7236 281.421 27.61C280.267 26.7072 279.119 25.803 277.965 24.9002C278.013 23.6583 278.053 22.4178 278.102 21.1825C277.701 21.0986 277.315 21.0249 276.936 20.9497C276.9 21.969 276.864 22.9883 276.826 24.001C275.103 22.6519 273.387 21.3014 271.663 19.9457C269.813 19.6151 268.803 19.4581 268.803 19.4581C268.803 19.4581 269.175 20.3743 269.899 22.0386C271.818 23.5443 273.737 25.0499 275.656 26.5555C274.426 26.5294 273.204 26.5978 271.992 26.7398C272.159 27.1022 272.327 27.4711 272.499 27.8532C274.062 27.6962 275.649 27.6716 277.251 27.802C278.591 28.8497 279.926 29.9054 281.267 30.9531C278.869 30.9008 276.499 31.0559 274.156 31.4184C274.323 31.7808 274.496 32.1418 274.673 32.5158C277.148 32.152 279.671 32.0253 282.202 32.1446C282.372 32.1556 282.505 32.0989 282.61 32.0138C285.073 33.9505 287.535 35.8806 289.999 37.8172C285.901 38.0209 281.817 38.3729 277.749 38.8589C277.931 39.2249 278.114 39.5975 278.304 39.9687C282.651 39.456 287.02 39.1034 291.399 38.9137C293.614 40.6501 295.831 42.3931 298.047 44.1296C292.422 44.4961 286.803 45.0059 281.207 45.6481C281.397 46.0193 281.592 46.3824 281.79 46.7587C287.651 46.0926 293.533 45.5734 299.429 45.2093C302.146 47.3382 304.864 49.4736 307.58 51.6024C300.111 51.8435 292.659 52.3698 285.237 53.1718C285.44 53.54 285.643 53.9083 285.848 54.2831C293.544 53.4623 301.276 52.9435 309.021 52.7244C310.812 54.1274 312.604 55.5369 314.395 56.9399C306.298 58.5571 298.201 60.1744 290.104 61.7916C290.31 62.1453 290.517 62.499 290.725 62.8593C299.016 61.2065 307.305 59.5471 315.602 57.8929C319.075 60.6195 322.548 63.3461 326.021 66.0727C315.422 66.4568 304.856 67.4114 294.372 68.9327C294.595 69.2966 294.817 69.6539 295.04 70.0178C305.777 68.4821 316.595 67.5343 327.448 67.191C330.631 69.6854 333.807 72.1812 336.992 74.6821C325.374 76.7754 313.75 78.8701 302.133 80.9634C302.374 81.3164 302.609 81.6708 302.849 82.0173C314.64 79.8928 326.431 77.7683 338.22 75.6373C339.434 76.5889 340.648 77.5405 341.855 78.4935C343.332 79.649 344.803 80.8124 346.28 81.9678C333.607 84.5196 320.927 87.0729 308.254 89.6247C308.507 89.9682 308.762 90.3183 309.022 90.6604C321.84 88.0767 334.667 85.498 347.486 82.9143C349.761 84.6995 352.036 86.4848 354.312 88.27C341.61 92.1146 328.909 95.9592 316.209 99.8104C316.478 100.137 316.748 100.463 317.025 100.787C329.758 96.9288 342.493 93.0769 355.226 89.2185C355.297 89.196 355.352 89.1633 355.407 89.1305C358.66 91.6853 361.911 94.2336 365.164 96.7883C351.295 100.579 337.425 104.364 323.557 108.154C323.86 108.473 324.165 108.799 324.468 109.117C338.415 105.309 352.363 101.501 366.31 97.686C368.747 99.6009 371.183 101.509 373.62 103.424C360.63 108.55 347.635 113.683 334.644 118.809C334.983 119.099 335.319 119.383 335.663 119.666C348.671 114.529 361.688 109.398 374.697 104.261C377.288 106.301 379.884 108.332 382.476 110.371C370.562 116.637 358.3 122.236 345.747 127.149C346.157 127.416 346.558 127.679 346.965 127.934C359.446 123.016 371.639 117.419 383.484 111.155C387.694 114.456 391.9 117.765 396.11 121.066C385.457 126.704 374.539 131.829 363.399 136.446C363.935 136.659 364.461 136.86 364.994 137.06C375.872 132.514 386.531 127.473 396.934 121.952C396.995 121.917 397.049 121.878 397.093 121.827C398.866 123.213 400.634 124.608 402.407 125.994C394.107 130.862 385.805 135.723 377.512 140.589C378.109 140.706 378.703 140.81 379.289 140.908C387.326 136.195 395.362 131.481 403.4 126.774C405.151 128.151 406.908 129.527 408.656 130.898C409.249 130.211 409.812 129.489 410.345 128.753C409.861 128.371 409.376 127.988 408.891 127.606C410.875 119.473 412.859 111.339 414.844 103.212C414.645 102.499 414.411 101.786 414.156 101.072C412.059 109.65 409.969 118.226 407.874 126.811C406.31 125.578 404.741 124.354 403.177 123.121C405.567 112.951 407.949 102.776 410.34 92.6066C410.069 92.095 409.783 91.5798 409.491 91.0659C407.046 101.482 404.602 111.904 402.151 122.321C399.722 120.411 397.294 118.508 394.865 116.599C397.785 105.108 400.699 93.6199 403.619 82.1298C403.319 81.7346 403.019 81.3394 402.705 80.9405C399.752 92.5615 396.806 104.181 393.852 115.795C391.73 114.135 389.614 112.466 387.492 110.805C387.432 110.757 387.374 110.714 387.314 110.666C389.798 98.2804 392.935 86.041 396.706 73.9861C396.401 73.6608 396.09 73.3368 395.772 73.0143C391.965 85.1187 388.799 97.4126 386.277 109.847C386.005 109.632 385.733 109.416 385.462 109.207C385.414 109.149 385.354 109.1 385.292 109.073C383.517 107.68 381.742 106.287 379.966 104.888C381.641 91.4347 383.971 78.0788 386.936 64.8521C386.594 64.5762 386.257 64.2923 385.909 64.0178C382.876 77.2801 380.538 90.6308 378.833 104.077Z" fill="#2F8C91"/>
</g>
<defs>
<clipPath id="clip0">
<rect width="375" height="73" fill="white" transform="translate(375 73) rotate(-180)"/>
</clipPath>
</defs>
</svg>
